<mxfile host="65bd71144e" modified="2021-03-04T22:47:43.551Z" agent="5.0 (Windows NT 10.0; Win64; x64) AppleWebKit/537.36 (KHTML, like Gecko) Code/1.54.0 Chrome/87.0.4280.141 Electron/11.3.0 Safari/537.36" etag="KpWImEw-A4UfOnsGjE_X" version="14.2.4" type="embed" pages="5">
    <diagram id="CNGVIRtz7uONiOdnMqPm" name="Casos de Uso">
        <mxGraphModel dx="1502" dy="502" grid="1" gridSize="10" guides="1" tooltips="1" connect="1" arrows="1" fold="1" page="1" pageScale="1" pageWidth="850" pageHeight="1100" math="0" shadow="0">
            <root>
                <mxCell id="0"/>
                <mxCell id="1" parent="0"/>
                <mxCell id="12" value="" style="rounded=0;whiteSpace=wrap;html=1;" parent="1" vertex="1">
                    <mxGeometry x="-740" y="220" width="210" height="440" as="geometry"/>
                </mxCell>
                <mxCell id="4" style="rounded=0;orthogonalLoop=1;jettySize=auto;html=1;entryX=0;entryY=0.5;entryDx=0;entryDy=0;endArrow=none;endFill=0;" parent="1" source="2" target="3" edge="1">
                    <mxGeometry relative="1" as="geometry"/>
                </mxCell>
                <mxCell id="2" value="Jugador" style="shape=umlActor;verticalLabelPosition=bottom;verticalAlign=top;html=1;" parent="1" vertex="1">
                    <mxGeometry x="-810" y="260" width="30" height="60" as="geometry"/>
                </mxCell>
                <mxCell id="3" value="Jugar juego" style="ellipse;shadow=0;" parent="1" vertex="1">
                    <mxGeometry x="-685" y="270" width="100" height="40" as="geometry"/>
                </mxCell>
                <mxCell id="8" value="" style="verticalLabelPosition=bottom;verticalAlign=top;html=1;shape=mxgraph.basic.smiley;fillColor=#e3c800;strokeColor=#B09500;fontColor=#ffffff;rotation=28;" parent="1" vertex="1">
                    <mxGeometry x="-750" y="100" width="60" height="60" as="geometry"/>
                </mxCell>
                <mxCell id="10" value="Administrador de juego" style="shape=umlActor;verticalLabelPosition=bottom;verticalAlign=top;html=1;whiteSpace=wrap;" parent="1" vertex="1">
                    <mxGeometry x="-810" y="530" width="30" height="60" as="geometry"/>
                </mxCell>
                <mxCell id="17" style="edgeStyle=none;rounded=0;orthogonalLoop=1;jettySize=auto;html=1;endArrow=none;endFill=0;" parent="1" source="11" target="13" edge="1">
                    <mxGeometry relative="1" as="geometry"/>
                </mxCell>
                <mxCell id="11" value="Administrador de datos" style="shape=umlActor;verticalLabelPosition=bottom;verticalAlign=top;html=1;whiteSpace=wrap;" parent="1" vertex="1">
                    <mxGeometry x="-810" y="390" width="30" height="60" as="geometry"/>
                </mxCell>
                <mxCell id="13" value="Leer y editar base de datos" style="ellipse;whiteSpace=wrap;html=1;spacing=4;" parent="1" vertex="1">
                    <mxGeometry x="-693.75" y="390" width="117.5" height="60" as="geometry"/>
                </mxCell>
                <mxCell id="16" style="rounded=0;orthogonalLoop=1;jettySize=auto;html=1;exitX=0;exitY=0.5;exitDx=0;exitDy=0;endArrow=none;endFill=0;" parent="1" source="14" target="10" edge="1">
                    <mxGeometry relative="1" as="geometry"/>
                </mxCell>
                <mxCell id="14" value="Monitorear estado del juego" style="ellipse;shadow=0;whiteSpace=wrap;spacing=8;" parent="1" vertex="1">
                    <mxGeometry x="-687.5" y="570" width="110" height="55" as="geometry"/>
                </mxCell>
                <mxCell id="19" style="edgeStyle=none;rounded=0;orthogonalLoop=1;jettySize=auto;html=1;endArrow=none;endFill=0;" parent="1" target="11" edge="1">
                    <mxGeometry relative="1" as="geometry"/>
                </mxCell>
                <mxCell id="18" value="&amp;lt;&amp;lt;Negocio&amp;gt;&amp;gt;&lt;br&gt;0rb1t" style="text;html=1;align=center;verticalAlign=middle;resizable=0;points=[];autosize=1;" parent="1" vertex="1">
                    <mxGeometry x="-680" y="224" width="90" height="30" as="geometry"/>
                </mxCell>
                <mxCell id="20" style="edgeStyle=none;rounded=0;orthogonalLoop=1;jettySize=auto;html=1;endArrow=none;endFill=0;" parent="1" source="15" target="11" edge="1">
                    <mxGeometry relative="1" as="geometry"/>
                </mxCell>
                <mxCell id="21" style="edgeStyle=none;rounded=0;orthogonalLoop=1;jettySize=auto;html=1;endArrow=none;endFill=0;" parent="1" source="15" target="10" edge="1">
                    <mxGeometry relative="1" as="geometry"/>
                </mxCell>
                <mxCell id="15" value="Ver dashboard" style="ellipse;whiteSpace=wrap;html=1;" parent="1" vertex="1">
                    <mxGeometry x="-687.5" y="480" width="105" height="40" as="geometry"/>
                </mxCell>
                <mxCell id="25" style="rounded=0;orthogonalLoop=1;jettySize=auto;html=1;entryX=0;entryY=0.5;entryDx=0;entryDy=0;endArrow=none;endFill=0;" parent="1" source="26" target="27" edge="1">
                    <mxGeometry relative="1" as="geometry"/>
                </mxCell>
                <mxCell id="26" value="Jugador" style="shape=umlActor;verticalLabelPosition=bottom;verticalAlign=top;html=1;" parent="1" vertex="1">
                    <mxGeometry x="-460" y="260" width="30" height="60" as="geometry"/>
                </mxCell>
                <mxCell id="27" value="Jugar juego" style="ellipse;shadow=0;" parent="1" vertex="1">
                    <mxGeometry x="-335" y="270" width="100" height="40" as="geometry"/>
                </mxCell>
                <mxCell id="28" value="&amp;lt;&amp;lt;include&amp;gt;&amp;gt;" style="html=1;verticalAlign=bottom;labelBackgroundColor=none;endArrow=open;endFill=0;dashed=1;" parent="1" source="27" target="29" edge="1">
                    <mxGeometry x="-0.3982" y="41" width="160" relative="1" as="geometry">
                        <mxPoint x="-190" y="310" as="sourcePoint"/>
                        <mxPoint x="-149.823269130094" y="296.9321400446106" as="targetPoint"/>
                        <mxPoint as="offset"/>
                    </mxGeometry>
                </mxCell>
                <mxCell id="29" value="Ver tutorial" style="ellipse;shadow=0;" parent="1" vertex="1">
                    <mxGeometry x="-360" y="180" width="100" height="40" as="geometry"/>
                </mxCell>
                <mxCell id="30" value="NIVEL 0" style="text;html=1;align=center;verticalAlign=middle;resizable=0;points=[];autosize=1;fontStyle=1" parent="1" vertex="1">
                    <mxGeometry x="-665" y="670" width="60" height="20" as="geometry"/>
                </mxCell>
                <mxCell id="31" value="Ingresar datos" style="ellipse;shadow=0;" parent="1" vertex="1">
                    <mxGeometry x="-208.12" y="180" width="100" height="40" as="geometry"/>
                </mxCell>
                <mxCell id="33" value="&amp;lt;&amp;lt;include&amp;gt;&amp;gt;" style="html=1;verticalAlign=bottom;labelBackgroundColor=none;endArrow=open;endFill=0;dashed=1;" parent="1" source="27" target="31" edge="1">
                    <mxGeometry x="0.0116" y="15" width="160" relative="1" as="geometry">
                        <mxPoint x="-230" y="440" as="sourcePoint"/>
                        <mxPoint x="-70" y="440" as="targetPoint"/>
                        <mxPoint as="offset"/>
                    </mxGeometry>
                </mxCell>
                <mxCell id="34" style="edgeStyle=none;rounded=0;orthogonalLoop=1;jettySize=auto;html=1;endArrow=none;endFill=0;" parent="1" source="35" target="36" edge="1">
                    <mxGeometry relative="1" as="geometry"/>
                </mxCell>
                <mxCell id="35" value="Administrador de datos" style="shape=umlActor;verticalLabelPosition=bottom;verticalAlign=top;html=1;whiteSpace=wrap;" parent="1" vertex="1">
                    <mxGeometry x="-460" y="560" width="30" height="60" as="geometry"/>
                </mxCell>
                <mxCell id="36" value="Leer y editar base de datos" style="ellipse;whiteSpace=wrap;html=1;spacing=4;" parent="1" vertex="1">
                    <mxGeometry x="-343.75" y="560" width="117.5" height="60" as="geometry"/>
                </mxCell>
                <mxCell id="37" value="&amp;lt;&amp;lt;include&amp;gt;&amp;gt;" style="html=1;verticalAlign=bottom;labelBackgroundColor=none;endArrow=open;endFill=0;dashed=1;exitX=0.5;exitY=0;exitDx=0;exitDy=0;" parent="1" source="36" target="39" edge="1">
                    <mxGeometry width="160" relative="1" as="geometry">
                        <mxPoint x="-329.90652884639536" y="550.466311235441" as="sourcePoint"/>
                        <mxPoint x="-310.1021019091525" y="500.0017675115266" as="targetPoint"/>
                    </mxGeometry>
                </mxCell>
                <mxCell id="38" value="Completar niveles" style="ellipse;shadow=0;spacing=6;whiteSpace=wrap;" parent="1" vertex="1">
                    <mxGeometry x="-220" y="350" width="100" height="40" as="geometry"/>
                </mxCell>
                <mxCell id="39" value="Leer edad, gÃ©nero y datos registrados por los jugadores" style="ellipse;shadow=0;whiteSpace=wrap;spacing=4;" parent="1" vertex="1">
                    <mxGeometry x="-226.25" y="470" width="146.25" height="70" as="geometry"/>
                </mxCell>
                <mxCell id="40" value="&amp;lt;&amp;lt;include&amp;gt;&amp;gt;" style="html=1;verticalAlign=bottom;labelBackgroundColor=none;endArrow=open;endFill=0;dashed=1;" parent="1" source="27" target="38" edge="1">
                    <mxGeometry x="0.3606" y="10" width="160" relative="1" as="geometry">
                        <mxPoint x="-229.9529083596783" y="291.32120252801144" as="sourcePoint"/>
                        <mxPoint x="-165.00796257077468" y="278.7112185620855" as="targetPoint"/>
                        <mxPoint as="offset"/>
                    </mxGeometry>
                </mxCell>
                <mxCell id="41" value="Ver pantalla de final de juego" style="ellipse;shadow=0;spacing=6;whiteSpace=wrap;" parent="1" vertex="1">
                    <mxGeometry x="-343.75" y="370" width="100" height="50" as="geometry"/>
                </mxCell>
                <mxCell id="42" value="&amp;lt;&amp;lt;include&amp;gt;&amp;gt;" style="html=1;verticalAlign=bottom;labelBackgroundColor=none;endArrow=open;endFill=0;dashed=1;" parent="1" source="27" target="41" edge="1">
                    <mxGeometry width="160" relative="1" as="geometry">
                        <mxPoint x="-249.89322413067862" y="317.29577893219925" as="sourcePoint"/>
                        <mxPoint x="-155.00796257077468" y="288.7112185620855" as="targetPoint"/>
                    </mxGeometry>
                </mxCell>
                <mxCell id="43" value="Leer puntuaciones de cada jugador" style="ellipse;shadow=0;whiteSpace=wrap;" parent="1" vertex="1">
                    <mxGeometry x="-170" y="550" width="110" height="60" as="geometry"/>
                </mxCell>
                <mxCell id="44" value="&amp;lt;&amp;lt;include&amp;gt;&amp;gt;" style="html=1;verticalAlign=bottom;labelBackgroundColor=none;endArrow=open;endFill=0;dashed=1;" parent="1" source="36" target="43" edge="1">
                    <mxGeometry width="160" relative="1" as="geometry">
                        <mxPoint x="-275" y="570" as="sourcePoint"/>
                        <mxPoint x="-198.85308288477108" y="540.0242432439886" as="targetPoint"/>
                    </mxGeometry>
                </mxCell>
                <mxCell id="45" value="Leer interÃ©s de jugadores en carreras STEM" style="ellipse;shadow=0;whiteSpace=wrap;" parent="1" vertex="1">
                    <mxGeometry x="-190" y="640" width="115" height="70" as="geometry"/>
                </mxCell>
                <mxCell id="46" value="Indicar nivel de interÃ©s en informaciÃ³n de STEM" style="ellipse;shadow=0;whiteSpace=wrap;spacing=5;" parent="1" vertex="1">
                    <mxGeometry x="-140" y="250" width="120" height="80" as="geometry"/>
                </mxCell>
                <mxCell id="47" value="&amp;lt;&amp;lt;include&amp;gt;&amp;gt;" style="html=1;verticalAlign=bottom;labelBackgroundColor=none;endArrow=open;endFill=0;dashed=1;exitX=1;exitY=1;exitDx=0;exitDy=0;" parent="1" source="36" target="45" edge="1">
                    <mxGeometry width="160" relative="1" as="geometry">
                        <mxPoint x="-230" y="660" as="sourcePoint"/>
                        <mxPoint x="-159.68293406456155" y="593.2166431802684" as="targetPoint"/>
                    </mxGeometry>
                </mxCell>
                <mxCell id="48" value="&amp;lt;&amp;lt;include&amp;gt;&amp;gt;" style="html=1;verticalAlign=bottom;labelBackgroundColor=none;endArrow=open;endFill=0;dashed=1;" parent="1" source="27" target="46" edge="1">
                    <mxGeometry x="0.0116" y="15" width="160" relative="1" as="geometry">
                        <mxPoint x="-250.34937140095644" y="282.59955628302816" as="sourcePoint"/>
                        <mxPoint x="-172.55016844658803" y="227.45012031899148" as="targetPoint"/>
                        <mxPoint as="offset"/>
                    </mxGeometry>
                </mxCell>
                <mxCell id="49" value="GeneraciÃ³n de estadÃ­stica y datos de valor" style="ellipse;shadow=0;whiteSpace=wrap;" parent="1" vertex="1">
                    <mxGeometry x="-335" y="670" width="115" height="60" as="geometry"/>
                </mxCell>
                <mxCell id="51" value="&amp;lt;&amp;lt;include&amp;gt;&amp;gt;" style="html=1;verticalAlign=bottom;labelBackgroundColor=none;endArrow=open;endFill=0;dashed=1;" parent="1" source="36" target="49" edge="1">
                    <mxGeometry width="160" relative="1" as="geometry">
                        <mxPoint x="-233.60557688542917" y="621.2885604589221" as="sourcePoint"/>
                        <mxPoint x="-164.42169939049745" y="661.04474320543" as="targetPoint"/>
                    </mxGeometry>
                </mxCell>
            </root>
        </mxGraphModel>
    </diagram>
    <diagram id="Zb0KJZQHECQ3YmuEq84n" name="Actividades-1">
        <mxGraphModel dx="652" dy="502" grid="1" gridSize="10" guides="1" tooltips="1" connect="1" arrows="1" fold="1" page="1" pageScale="1" pageWidth="850" pageHeight="1100" math="0" shadow="0">
            <root>
                <mxCell id="hrBGcfctV7RR8nd9Dh6A-0"/>
                <mxCell id="hrBGcfctV7RR8nd9Dh6A-1" parent="hrBGcfctV7RR8nd9Dh6A-0"/>
                <mxCell id="_5uxoyFk3nfSWLANJEMk-6" value="Usuario" style="swimlane;fontStyle=1;align=center;verticalAlign=middle;childLayout=stackLayout;horizontal=1;startSize=30;horizontalStack=0;resizeParent=1;resizeParentMax=0;resizeLast=0;collapsible=0;marginBottom=0;html=1;" parent="hrBGcfctV7RR8nd9Dh6A-1" vertex="1">
                    <mxGeometry x="180" y="140" width="160" height="790" as="geometry"/>
                </mxCell>
                <mxCell id="_5uxoyFk3nfSWLANJEMk-8" value="" style="swimlane;fontStyle=1;align=center;verticalAlign=middle;horizontal=1;startSize=0;collapsible=0;marginBottom=0;html=1;strokeColor=none;fillColor=none;" parent="_5uxoyFk3nfSWLANJEMk-6" vertex="1">
                    <mxGeometry y="30" width="160" height="760" as="geometry"/>
                </mxCell>
                <mxCell id="_5uxoyFk3nfSWLANJEMk-11" value="connector1" style="edgeStyle=none;endArrow=none;verticalAlign=middle;labelBackgroundColor=none;endSize=12;html=1;align=left;endFill=0;exitX=0.15;exitY=1;entryX=0.15;entryY=0;spacingLeft=4;" parent="_5uxoyFk3nfSWLANJEMk-8" edge="1">
                    <mxGeometry relative="1" as="geometry">
                        <mxPoint x="35" y="50" as="sourcePoint"/>
                    </mxGeometry>
                </mxCell>
                <mxCell id="_5uxoyFk3nfSWLANJEMk-15" style="edgeStyle=orthogonalEdgeStyle;rounded=0;orthogonalLoop=1;jettySize=auto;html=1;verticalAlign=middle;" parent="_5uxoyFk3nfSWLANJEMk-8" source="_5uxoyFk3nfSWLANJEMk-13" target="_5uxoyFk3nfSWLANJEMk-14" edge="1">
                    <mxGeometry relative="1" as="geometry"/>
                </mxCell>
                <mxCell id="_5uxoyFk3nfSWLANJEMk-13" value="" style="ellipse;fillColor=#000000;strokeColor=none;verticalAlign=middle;" parent="_5uxoyFk3nfSWLANJEMk-8" vertex="1">
                    <mxGeometry x="70" y="10" width="20" height="20" as="geometry"/>
                </mxCell>
                <mxCell id="UnFcUf0dbvn78Xmu6szu-6" style="edgeStyle=orthogonalEdgeStyle;rounded=0;orthogonalLoop=1;jettySize=auto;html=1;" parent="_5uxoyFk3nfSWLANJEMk-8" source="_5uxoyFk3nfSWLANJEMk-14" target="UnFcUf0dbvn78Xmu6szu-1" edge="1">
                    <mxGeometry relative="1" as="geometry"/>
                </mxCell>
                <mxCell id="_5uxoyFk3nfSWLANJEMk-14" value="Ingresar al sitio del juego" style="html=1;align=center;verticalAlign=middle;rounded=1;absoluteArcSize=1;arcSize=10;dashed=0;" parent="_5uxoyFk3nfSWLANJEMk-8" vertex="1">
                    <mxGeometry x="10" y="60" width="140" height="30" as="geometry"/>
                </mxCell>
                <mxCell id="UnFcUf0dbvn78Xmu6szu-1" value="Ingresar datos" style="html=1;align=center;verticalAlign=middle;rounded=1;absoluteArcSize=1;arcSize=10;dashed=0;" parent="_5uxoyFk3nfSWLANJEMk-8" vertex="1">
                    <mxGeometry x="10" y="110" width="140" height="30" as="geometry"/>
                </mxCell>
                <mxCell id="UnFcUf0dbvn78Xmu6szu-3" value="Ver tutorial" style="html=1;align=center;verticalAlign=middle;rounded=1;absoluteArcSize=1;arcSize=10;dashed=0;" parent="_5uxoyFk3nfSWLANJEMk-8" vertex="1">
                    <mxGeometry x="10" y="220" width="140" height="30" as="geometry"/>
                </mxCell>
                <mxCell id="EdMJVNcYzPE4LSqyNnMb-3" value="Escoger cÃ³mo proceder" style="html=1;align=center;verticalAlign=middle;rounded=1;absoluteArcSize=1;arcSize=10;dashed=0;whiteSpace=wrap;" parent="_5uxoyFk3nfSWLANJEMk-8" vertex="1">
                    <mxGeometry x="50" y="422.5" width="90" height="35" as="geometry"/>
                </mxCell>
                <mxCell id="GueCMz1fzk_AEvHUkFYg-49" style="edgeStyle=orthogonalEdgeStyle;rounded=0;orthogonalLoop=1;jettySize=auto;html=1;entryX=0.5;entryY=0;entryDx=0;entryDy=0;" parent="_5uxoyFk3nfSWLANJEMk-8" source="GueCMz1fzk_AEvHUkFYg-47" target="UnFcUf0dbvn78Xmu6szu-3" edge="1">
                    <mxGeometry relative="1" as="geometry"/>
                </mxCell>
                <mxCell id="EdMJVNcYzPE4LSqyNnMb-16" value="[jugar]" style="edgeLabel;html=1;align=center;verticalAlign=middle;resizable=0;points=[];" parent="GueCMz1fzk_AEvHUkFYg-49" connectable="0" vertex="1">
                    <mxGeometry x="0.1544" relative="1" as="geometry">
                        <mxPoint y="-13" as="offset"/>
                    </mxGeometry>
                </mxCell>
                <mxCell id="GueCMz1fzk_AEvHUkFYg-47" value="" style="rhombus;" parent="_5uxoyFk3nfSWLANJEMk-8" vertex="1">
                    <mxGeometry x="70" y="160" width="20" height="20" as="geometry"/>
                </mxCell>
                <mxCell id="EdMJVNcYzPE4LSqyNnMb-18" style="edgeStyle=orthogonalEdgeStyle;rounded=0;orthogonalLoop=1;jettySize=auto;html=1;endArrow=classic;endFill=1;" parent="_5uxoyFk3nfSWLANJEMk-8" source="UnFcUf0dbvn78Xmu6szu-8" target="EdMJVNcYzPE4LSqyNnMb-17" edge="1">
                    <mxGeometry relative="1" as="geometry"/>
                </mxCell>
                <mxCell id="UnFcUf0dbvn78Xmu6szu-8" value="Poner nave en Ã³rbita" style="html=1;align=center;verticalAlign=middle;rounded=1;absoluteArcSize=1;arcSize=10;dashed=0;" parent="_5uxoyFk3nfSWLANJEMk-8" vertex="1">
                    <mxGeometry x="10" y="330" width="140" height="30" as="geometry"/>
                </mxCell>
                <mxCell id="UnFcUf0dbvn78Xmu6szu-9" style="edgeStyle=orthogonalEdgeStyle;rounded=0;orthogonalLoop=1;jettySize=auto;html=1;" parent="_5uxoyFk3nfSWLANJEMk-8" source="dAJz0EXMKeYUJjUkM31M-0" target="UnFcUf0dbvn78Xmu6szu-8" edge="1">
                    <mxGeometry relative="1" as="geometry">
                        <mxPoint x="80" y="281" as="sourcePoint"/>
                    </mxGeometry>
                </mxCell>
                <mxCell id="EdMJVNcYzPE4LSqyNnMb-17" value="" style="rhombus;" parent="_5uxoyFk3nfSWLANJEMk-8" vertex="1">
                    <mxGeometry x="70" y="380" width="20" height="20" as="geometry"/>
                </mxCell>
                <mxCell id="GueCMz1fzk_AEvHUkFYg-58" value="" style="rhombus;" parent="_5uxoyFk3nfSWLANJEMk-8" vertex="1">
                    <mxGeometry x="85" y="705" width="20" height="20" as="geometry"/>
                </mxCell>
                <mxCell id="GueCMz1fzk_AEvHUkFYg-54" style="edgeStyle=orthogonalEdgeStyle;rounded=0;orthogonalLoop=1;jettySize=auto;html=1;entryX=0;entryY=0.5;entryDx=0;entryDy=0;exitX=0;exitY=0.5;exitDx=0;exitDy=0;" parent="_5uxoyFk3nfSWLANJEMk-8" source="GueCMz1fzk_AEvHUkFYg-58" target="dAJz0EXMKeYUJjUkM31M-0" edge="1">
                    <mxGeometry relative="1" as="geometry">
                        <Array as="points">
                            <mxPoint x="-20" y="715"/>
                            <mxPoint x="-20" y="290"/>
                        </Array>
                    </mxGeometry>
                </mxCell>
                <mxCell id="dAJz0EXMKeYUJjUkM31M-8" value="[tiene vidas]" style="edgeLabel;html=1;align=center;verticalAlign=middle;resizable=0;points=[];" parent="GueCMz1fzk_AEvHUkFYg-54" connectable="0" vertex="1">
                    <mxGeometry x="-0.8576" y="-1" relative="1" as="geometry">
                        <mxPoint as="offset"/>
                    </mxGeometry>
                </mxCell>
                <mxCell id="dAJz0EXMKeYUJjUkM31M-0" value="" style="rhombus;" parent="_5uxoyFk3nfSWLANJEMk-8" vertex="1">
                    <mxGeometry x="70" y="280" width="20" height="20" as="geometry"/>
                </mxCell>
                <mxCell id="dAJz0EXMKeYUJjUkM31M-1" style="edgeStyle=orthogonalEdgeStyle;rounded=0;orthogonalLoop=1;jettySize=auto;html=1;" parent="_5uxoyFk3nfSWLANJEMk-8" source="UnFcUf0dbvn78Xmu6szu-3" target="dAJz0EXMKeYUJjUkM31M-0" edge="1">
                    <mxGeometry relative="1" as="geometry">
                        <mxPoint x="260" y="420" as="sourcePoint"/>
                        <mxPoint x="260" y="500" as="targetPoint"/>
                    </mxGeometry>
                </mxCell>
                <mxCell id="SJO43fgKcmUotIOQcybM-0" value="" style="rhombus;" parent="_5uxoyFk3nfSWLANJEMk-8" vertex="1">
                    <mxGeometry x="85" y="595" width="20" height="20" as="geometry"/>
                </mxCell>
                <mxCell id="EdMJVNcYzPE4LSqyNnMb-20" value="[usuario no cumple misiÃ³n]" style="edgeStyle=orthogonalEdgeStyle;rounded=0;orthogonalLoop=1;jettySize=auto;html=1;exitX=0;exitY=0.5;exitDx=0;exitDy=0;entryX=0;entryY=0.5;entryDx=0;entryDy=0;" parent="_5uxoyFk3nfSWLANJEMk-8" source="EdMJVNcYzPE4LSqyNnMb-17" target="SJO43fgKcmUotIOQcybM-0" edge="1">
                    <mxGeometry x="-0.9999" y="20" relative="1" as="geometry">
                        <mxPoint x="100" y="500" as="targetPoint"/>
                        <Array as="points">
                            <mxPoint x="20" y="390"/>
                            <mxPoint x="20" y="605"/>
                        </Array>
                        <mxPoint as="offset"/>
                        <mxPoint x="-30" y="580" as="sourcePoint"/>
                    </mxGeometry>
                </mxCell>
                <mxCell id="SJO43fgKcmUotIOQcybM-1" style="edgeStyle=orthogonalEdgeStyle;rounded=0;orthogonalLoop=1;jettySize=auto;html=1;exitX=0.5;exitY=0;exitDx=0;exitDy=0;entryX=0.5;entryY=1;entryDx=0;entryDy=0;" parent="_5uxoyFk3nfSWLANJEMk-8" source="GueCMz1fzk_AEvHUkFYg-58" target="SJO43fgKcmUotIOQcybM-0" edge="1">
                    <mxGeometry relative="1" as="geometry">
                        <mxPoint x="95" y="510" as="targetPoint"/>
                        <Array as="points">
                            <mxPoint x="95" y="670"/>
                        </Array>
                        <mxPoint x="95" y="705" as="sourcePoint"/>
                    </mxGeometry>
                </mxCell>
                <mxCell id="SJO43fgKcmUotIOQcybM-2" value="[no tiene vidas]" style="edgeLabel;html=1;align=center;verticalAlign=middle;resizable=0;points=[];" parent="SJO43fgKcmUotIOQcybM-1" connectable="0" vertex="1">
                    <mxGeometry x="0.2544" y="1" relative="1" as="geometry">
                        <mxPoint x="0.9800000000000002" y="11.57" as="offset"/>
                    </mxGeometry>
                </mxCell>
                <mxCell id="_5uxoyFk3nfSWLANJEMk-12" value="&lt;b&gt;Diagrama de actividades 1:&lt;br&gt;&lt;/b&gt;Jugar juego" style="text;html=1;align=center;verticalAlign=middle;resizable=0;points=[];autosize=1;" parent="hrBGcfctV7RR8nd9Dh6A-1" vertex="1">
                    <mxGeometry x="261" y="75" width="170" height="30" as="geometry"/>
                </mxCell>
                <mxCell id="EdMJVNcYzPE4LSqyNnMb-0" value="[usuario cumple misiÃ³n]" style="edgeStyle=orthogonalEdgeStyle;rounded=0;orthogonalLoop=1;jettySize=auto;html=1;" parent="hrBGcfctV7RR8nd9Dh6A-1" source="EdMJVNcYzPE4LSqyNnMb-17" target="EdMJVNcYzPE4LSqyNnMb-1" edge="1">
                    <mxGeometry x="0.7895" y="14" relative="1" as="geometry">
                        <mxPoint x="380" y="536" as="targetPoint"/>
                        <Array as="points">
                            <mxPoint x="440" y="560"/>
                        </Array>
                        <mxPoint x="-4" y="-10" as="offset"/>
                    </mxGeometry>
                </mxCell>
                <mxCell id="GueCMz1fzk_AEvHUkFYg-26" value="Sistema" style="swimlane;fontStyle=1;align=center;verticalAlign=middle;childLayout=stackLayout;horizontal=1;startSize=30;horizontalStack=0;resizeParent=1;resizeParentMax=0;resizeLast=0;collapsible=0;marginBottom=0;html=1;" parent="hrBGcfctV7RR8nd9Dh6A-1" vertex="1">
                    <mxGeometry x="340" y="140" width="160" height="790" as="geometry"/>
                </mxCell>
                <mxCell id="GueCMz1fzk_AEvHUkFYg-41" style="edgeStyle=orthogonalEdgeStyle;rounded=0;orthogonalLoop=1;jettySize=auto;html=1;entryX=0;entryY=0.5;entryDx=0;entryDy=0;" parent="hrBGcfctV7RR8nd9Dh6A-1" source="UnFcUf0dbvn78Xmu6szu-1" target="GueCMz1fzk_AEvHUkFYg-39" edge="1">
                    <mxGeometry relative="1" as="geometry"/>
                </mxCell>
                <mxCell id="UnFcUf0dbvn78Xmu6szu-10" value="" style="ellipse;html=1;shape=endState;fillColor=#000000;strokeColor=#000000;" parent="hrBGcfctV7RR8nd9Dh6A-1" vertex="1">
                    <mxGeometry x="410" y="810" width="20" height="20" as="geometry"/>
                </mxCell>
                <mxCell id="EdMJVNcYzPE4LSqyNnMb-4" style="edgeStyle=orthogonalEdgeStyle;rounded=0;orthogonalLoop=1;jettySize=auto;html=1;entryX=1;entryY=0.5;entryDx=0;entryDy=0;" parent="hrBGcfctV7RR8nd9Dh6A-1" target="EdMJVNcYzPE4LSqyNnMb-3" edge="1">
                    <mxGeometry relative="1" as="geometry">
                        <Array as="points">
                            <mxPoint x="440" y="560"/>
                        </Array>
                    </mxGeometry>
                </mxCell>
                <mxCell id="EdMJVNcYzPE4LSqyNnMb-9" style="edgeStyle=orthogonalEdgeStyle;rounded=0;orthogonalLoop=1;jettySize=auto;html=1;endArrow=classic;endFill=1;entryX=0;entryY=0.5;entryDx=0;entryDy=0;" parent="hrBGcfctV7RR8nd9Dh6A-1" source="dAJz0EXMKeYUJjUkM31M-3" edge="1">
                    <mxGeometry relative="1" as="geometry">
                        <Array as="points">
                            <mxPoint x="275" y="670"/>
                        </Array>
                        <mxPoint x="410" y="670" as="targetPoint"/>
                    </mxGeometry>
                </mxCell>
                <mxCell id="GueCMz1fzk_AEvHUkFYg-48" style="edgeStyle=orthogonalEdgeStyle;rounded=0;orthogonalLoop=1;jettySize=auto;html=1;entryX=1;entryY=0.5;entryDx=0;entryDy=0;" parent="hrBGcfctV7RR8nd9Dh6A-1" source="UnFcUf0dbvn78Xmu6szu-2" target="GueCMz1fzk_AEvHUkFYg-47" edge="1">
                    <mxGeometry relative="1" as="geometry"/>
                </mxCell>
                <mxCell id="EdMJVNcYzPE4LSqyNnMb-12" style="edgeStyle=orthogonalEdgeStyle;rounded=0;orthogonalLoop=1;jettySize=auto;html=1;entryX=0.5;entryY=0;entryDx=0;entryDy=0;endArrow=classic;endFill=1;" parent="hrBGcfctV7RR8nd9Dh6A-1" source="EdMJVNcYzPE4LSqyNnMb-10" target="UnFcUf0dbvn78Xmu6szu-10" edge="1">
                    <mxGeometry relative="1" as="geometry"/>
                </mxCell>
                <mxCell id="GueCMz1fzk_AEvHUkFYg-55" style="edgeStyle=orthogonalEdgeStyle;rounded=0;orthogonalLoop=1;jettySize=auto;html=1;entryX=1;entryY=0.5;entryDx=0;entryDy=0;" parent="hrBGcfctV7RR8nd9Dh6A-1" source="EdMJVNcYzPE4LSqyNnMb-1" target="EdMJVNcYzPE4LSqyNnMb-3" edge="1">
                    <mxGeometry relative="1" as="geometry"/>
                </mxCell>
                <mxCell id="GueCMz1fzk_AEvHUkFYg-60" style="edgeStyle=orthogonalEdgeStyle;rounded=0;orthogonalLoop=1;jettySize=auto;html=1;entryX=1;entryY=0.5;entryDx=0;entryDy=0;" parent="hrBGcfctV7RR8nd9Dh6A-1" source="UnFcUf0dbvn78Xmu6szu-11" target="GueCMz1fzk_AEvHUkFYg-58" edge="1">
                    <mxGeometry relative="1" as="geometry"/>
                </mxCell>
                <mxCell id="GueCMz1fzk_AEvHUkFYg-27" value="" style="swimlane;fontStyle=1;align=center;verticalAlign=middle;horizontal=1;startSize=0;collapsible=0;marginBottom=0;html=1;strokeColor=none;fillColor=none;" parent="hrBGcfctV7RR8nd9Dh6A-1" vertex="1">
                    <mxGeometry x="340" y="170" width="160" height="760" as="geometry"/>
                </mxCell>
                <mxCell id="GueCMz1fzk_AEvHUkFYg-28" value="connector1" style="edgeStyle=none;endArrow=none;verticalAlign=middle;labelBackgroundColor=none;endSize=12;html=1;align=left;endFill=0;exitX=0.15;exitY=1;entryX=0.15;entryY=0;spacingLeft=4;" parent="GueCMz1fzk_AEvHUkFYg-27" edge="1">
                    <mxGeometry relative="1" as="geometry">
                        <mxPoint x="35" y="50" as="sourcePoint"/>
                    </mxGeometry>
                </mxCell>
                <mxCell id="GueCMz1fzk_AEvHUkFYg-33" style="edgeStyle=orthogonalEdgeStyle;rounded=0;orthogonalLoop=1;jettySize=auto;html=1;exitX=0.5;exitY=1;exitDx=0;exitDy=0;entryX=0.5;entryY=0;entryDx=0;entryDy=0;" parent="GueCMz1fzk_AEvHUkFYg-27" edge="1">
                    <mxGeometry relative="1" as="geometry">
                        <mxPoint x="80" y="140" as="sourcePoint"/>
                    </mxGeometry>
                </mxCell>
                <mxCell id="GueCMz1fzk_AEvHUkFYg-35" style="edgeStyle=orthogonalEdgeStyle;rounded=0;orthogonalLoop=1;jettySize=auto;html=1;" parent="GueCMz1fzk_AEvHUkFYg-27" edge="1">
                    <mxGeometry relative="1" as="geometry">
                        <mxPoint x="80" y="190" as="sourcePoint"/>
                    </mxGeometry>
                </mxCell>
                <mxCell id="EdMJVNcYzPE4LSqyNnMb-1" value="EnseÃ±ar informaciÃ³n STEM al final de cada nivel, con opciones" style="html=1;align=center;verticalAlign=middle;rounded=1;absoluteArcSize=1;arcSize=10;dashed=0;whiteSpace=wrap;spacing=4;" parent="GueCMz1fzk_AEvHUkFYg-27" vertex="1">
                    <mxGeometry x="10" y="410" width="140" height="60" as="geometry"/>
                </mxCell>
                <mxCell id="GueCMz1fzk_AEvHUkFYg-53" style="edgeStyle=orthogonalEdgeStyle;rounded=0;orthogonalLoop=1;jettySize=auto;html=1;entryX=0.5;entryY=0;entryDx=0;entryDy=0;" parent="GueCMz1fzk_AEvHUkFYg-27" source="GueCMz1fzk_AEvHUkFYg-39" target="UnFcUf0dbvn78Xmu6szu-2" edge="1">
                    <mxGeometry relative="1" as="geometry"/>
                </mxCell>
                <mxCell id="GueCMz1fzk_AEvHUkFYg-39" value="Subir informaciÃ³n a base de datos" style="html=1;align=center;verticalAlign=middle;rounded=1;absoluteArcSize=1;arcSize=10;dashed=0;whiteSpace=wrap;" parent="GueCMz1fzk_AEvHUkFYg-27" vertex="1">
                    <mxGeometry x="10" y="110" width="140" height="30" as="geometry"/>
                </mxCell>
                <mxCell id="UnFcUf0dbvn78Xmu6szu-2" value="Menu principal" style="html=1;align=center;verticalAlign=middle;rounded=1;absoluteArcSize=1;arcSize=10;dashed=0;" parent="GueCMz1fzk_AEvHUkFYg-27" vertex="1">
                    <mxGeometry x="10" y="155" width="140" height="30" as="geometry"/>
                </mxCell>
                <mxCell id="EdMJVNcYzPE4LSqyNnMb-13" style="edgeStyle=orthogonalEdgeStyle;rounded=0;orthogonalLoop=1;jettySize=auto;html=1;entryX=1;entryY=0.5;entryDx=0;entryDy=0;endArrow=classic;endFill=1;" parent="GueCMz1fzk_AEvHUkFYg-27" target="UnFcUf0dbvn78Xmu6szu-11" edge="1">
                    <mxGeometry relative="1" as="geometry">
                        <mxPoint x="-50" y="500" as="sourcePoint"/>
                    </mxGeometry>
                </mxCell>
                <mxCell id="EdMJVNcYzPE4LSqyNnMb-14" value="[calificar la info]" style="edgeLabel;html=1;align=center;verticalAlign=middle;resizable=0;points=[];" parent="EdMJVNcYzPE4LSqyNnMb-13" connectable="0" vertex="1">
                    <mxGeometry x="-0.6518" y="-1" relative="1" as="geometry">
                        <mxPoint x="41" y="-1" as="offset"/>
                    </mxGeometry>
                </mxCell>
                <mxCell id="EdMJVNcYzPE4LSqyNnMb-10" value="Mostrar puntuaciÃ³n" style="html=1;align=center;verticalAlign=middle;rounded=1;absoluteArcSize=1;arcSize=10;dashed=0;" parent="GueCMz1fzk_AEvHUkFYg-27" vertex="1">
                    <mxGeometry x="10" y="590" width="140" height="30" as="geometry"/>
                </mxCell>
                <mxCell id="UnFcUf0dbvn78Xmu6szu-11" value="Registrar calificaciÃ³n de informaciÃ³n en la base de datos" style="html=1;align=center;verticalAlign=middle;rounded=1;absoluteArcSize=1;arcSize=10;dashed=0;whiteSpace=wrap;" parent="GueCMz1fzk_AEvHUkFYg-27" vertex="1">
                    <mxGeometry x="10" y="690" width="140" height="50" as="geometry"/>
                </mxCell>
                <mxCell id="dAJz0EXMKeYUJjUkM31M-3" value="" style="rhombus;" parent="hrBGcfctV7RR8nd9Dh6A-1" vertex="1">
                    <mxGeometry x="265" y="660" width="20" height="20" as="geometry"/>
                </mxCell>
                <mxCell id="dAJz0EXMKeYUJjUkM31M-7" style="edgeStyle=orthogonalEdgeStyle;rounded=0;orthogonalLoop=1;jettySize=auto;html=1;entryX=0.5;entryY=0;entryDx=0;entryDy=0;" parent="hrBGcfctV7RR8nd9Dh6A-1" source="EdMJVNcYzPE4LSqyNnMb-3" target="dAJz0EXMKeYUJjUkM31M-3" edge="1">
                    <mxGeometry relative="1" as="geometry"/>
                </mxCell>
                <mxCell id="mkse1LYsCXyDKq4m64lH-0" style="edgeStyle=orthogonalEdgeStyle;rounded=0;orthogonalLoop=1;jettySize=auto;html=1;entryX=0;entryY=0.5;entryDx=0;entryDy=0;" parent="hrBGcfctV7RR8nd9Dh6A-1" source="SJO43fgKcmUotIOQcybM-0" target="EdMJVNcYzPE4LSqyNnMb-10" edge="1">
                    <mxGeometry relative="1" as="geometry"/>
                </mxCell>
                <mxCell id="EdMJVNcYzPE4LSqyNnMb-11" value="[salir del juego]" style="edgeStyle=orthogonalEdgeStyle;rounded=0;orthogonalLoop=1;jettySize=auto;html=1;exitX=0.5;exitY=1;exitDx=0;exitDy=0;entryX=0.5;entryY=0;entryDx=0;entryDy=0;" parent="hrBGcfctV7RR8nd9Dh6A-1" source="dAJz0EXMKeYUJjUkM31M-3" target="SJO43fgKcmUotIOQcybM-0" edge="1">
                    <mxGeometry relative="1" as="geometry">
                        <mxPoint x="420" y="680" as="sourcePoint"/>
                    </mxGeometry>
                </mxCell>
            </root>
        </mxGraphModel>
    </diagram>
    <diagram id="xIofVEg_e--jpLUVjn8Y" name="Actividades-2">
        <mxGraphModel grid="1" gridSize="10" guides="1" tooltips="1" connect="1" arrows="1" page="1" fold="1" pageScale="1" pageWidth="850" pageHeight="1100" math="0" shadow="0">
            <root>
                <mxCell id="ruJJHhrRTI-WcSIrkkKd-0"/>
                <mxCell id="ruJJHhrRTI-WcSIrkkKd-1" parent="ruJJHhrRTI-WcSIrkkKd-0"/>
                <mxCell id="gv8aI-1bF7YjEdAF70JZ-0" value="&lt;b&gt;Diagrama de actividades 2&lt;/b&gt;&lt;br&gt;&lt;sup&gt;Leer y editar&amp;nbsp; base de datos&lt;br&gt;&lt;/sup&gt;" style="text;html=1;align=center;verticalAlign=middle;resizable=0;points=[];autosize=1;" vertex="1" parent="ruJJHhrRTI-WcSIrkkKd-1">
                    <mxGeometry x="170" y="50" width="170" height="40" as="geometry"/>
                </mxCell>
                <mxCell id="Ap9Q94vxLpy-YJ2IYyu8-0" value="Usuario" style="swimlane;fontStyle=1;align=center;verticalAlign=middle;childLayout=stackLayout;horizontal=1;startSize=30;horizontalStack=0;resizeParent=1;resizeParentMax=0;resizeLast=0;collapsible=0;marginBottom=0;html=1;" vertex="1" parent="ruJJHhrRTI-WcSIrkkKd-1">
                    <mxGeometry x="80" y="100" width="170" height="780" as="geometry"/>
                </mxCell>
                <mxCell id="Ap9Q94vxLpy-YJ2IYyu8-1" value="" style="swimlane;fontStyle=1;align=center;verticalAlign=middle;horizontal=1;startSize=0;collapsible=0;marginBottom=0;html=1;strokeColor=none;fillColor=none;" vertex="1" parent="Ap9Q94vxLpy-YJ2IYyu8-0">
                    <mxGeometry y="30" width="170" height="750" as="geometry"/>
                </mxCell>
                <mxCell id="Ap9Q94vxLpy-YJ2IYyu8-2" value="connector1" style="edgeStyle=none;endArrow=none;verticalAlign=middle;labelBackgroundColor=none;endSize=12;html=1;align=left;endFill=0;exitX=0.15;exitY=1;entryX=0.15;entryY=0;spacingLeft=4;" edge="1" parent="Ap9Q94vxLpy-YJ2IYyu8-1">
                    <mxGeometry relative="1" as="geometry">
                        <mxPoint x="35" y="50" as="sourcePoint"/>
                    </mxGeometry>
                </mxCell>
                <mxCell id="Ap9Q94vxLpy-YJ2IYyu8-3" style="edgeStyle=orthogonalEdgeStyle;rounded=0;orthogonalLoop=1;jettySize=auto;html=1;verticalAlign=middle;" edge="1" parent="Ap9Q94vxLpy-YJ2IYyu8-1" source="Ap9Q94vxLpy-YJ2IYyu8-4">
                    <mxGeometry relative="1" as="geometry">
                        <mxPoint x="85" y="60" as="targetPoint"/>
                    </mxGeometry>
                </mxCell>
                <mxCell id="Ap9Q94vxLpy-YJ2IYyu8-4" value="" style="ellipse;fillColor=#000000;strokeColor=none;verticalAlign=middle;" vertex="1" parent="Ap9Q94vxLpy-YJ2IYyu8-1">
                    <mxGeometry x="75" y="10" width="20" height="20" as="geometry"/>
                </mxCell>
                <mxCell id="Ap9Q94vxLpy-YJ2IYyu8-6" value="Ingresar al sitio de administraciÃ³n de datos" style="html=1;align=center;verticalAlign=middle;rounded=1;absoluteArcSize=1;arcSize=10;dashed=0;whiteSpace=wrap;" vertex="1" parent="Ap9Q94vxLpy-YJ2IYyu8-1">
                    <mxGeometry x="15" y="60" width="140" height="40" as="geometry"/>
                </mxCell>
                <mxCell id="M7B-B2GgW6A6GWUvNCqD-0" value="Ingresar usuario y contraseÃ±a" style="html=1;align=center;verticalAlign=middle;rounded=1;absoluteArcSize=1;arcSize=10;dashed=0;whiteSpace=wrap;" vertex="1" parent="Ap9Q94vxLpy-YJ2IYyu8-1">
                    <mxGeometry x="15" y="140" width="140" height="40" as="geometry"/>
                </mxCell>
                <mxCell id="DBzuubTy9__0ysfCKPUm-1" style="edgeStyle=orthogonalEdgeStyle;rounded=0;orthogonalLoop=1;jettySize=auto;html=1;" edge="1" parent="Ap9Q94vxLpy-YJ2IYyu8-1" source="U_dZqx0AGd9mcZNxWNDu-5" target="DBzuubTy9__0ysfCKPUm-0">
                    <mxGeometry relative="1" as="geometry"/>
                </mxCell>
                <mxCell id="U_dZqx0AGd9mcZNxWNDu-5" value="Ver datos de las tablas" style="html=1;align=center;verticalAlign=middle;rounded=1;absoluteArcSize=1;arcSize=10;dashed=0;whiteSpace=wrap;" vertex="1" parent="Ap9Q94vxLpy-YJ2IYyu8-1">
                    <mxGeometry x="15" y="365" width="140" height="30" as="geometry"/>
                </mxCell>
                <mxCell id="BESiqwfDWX3r3CabY_xO-3" style="edgeStyle=orthogonalEdgeStyle;rounded=0;orthogonalLoop=1;jettySize=auto;html=1;endArrow=classic;endFill=1;" edge="1" parent="Ap9Q94vxLpy-YJ2IYyu8-1" source="DBzuubTy9__0ysfCKPUm-0" target="BESiqwfDWX3r3CabY_xO-2">
                    <mxGeometry relative="1" as="geometry"/>
                </mxCell>
                <mxCell id="DBzuubTy9__0ysfCKPUm-0" value="Seleccionar filas para eliminar" style="html=1;align=center;verticalAlign=middle;rounded=1;absoluteArcSize=1;arcSize=10;dashed=0;whiteSpace=wrap;" vertex="1" parent="Ap9Q94vxLpy-YJ2IYyu8-1">
                    <mxGeometry x="15" y="420" width="140" height="40" as="geometry"/>
                </mxCell>
                <mxCell id="BESiqwfDWX3r3CabY_xO-9" value="[no se seleccionÃ³]" style="edgeStyle=orthogonalEdgeStyle;rounded=0;orthogonalLoop=1;jettySize=auto;html=1;endArrow=classic;endFill=1;" edge="1" parent="Ap9Q94vxLpy-YJ2IYyu8-1" source="BESiqwfDWX3r3CabY_xO-2" target="BESiqwfDWX3r3CabY_xO-8">
                    <mxGeometry relative="1" as="geometry"/>
                </mxCell>
                <mxCell id="BESiqwfDWX3r3CabY_xO-2" value="" style="rhombus;" vertex="1" parent="Ap9Q94vxLpy-YJ2IYyu8-1">
                    <mxGeometry x="75" y="490" width="20" height="20" as="geometry"/>
                </mxCell>
                <mxCell id="BESiqwfDWX3r3CabY_xO-11" style="edgeStyle=orthogonalEdgeStyle;rounded=0;orthogonalLoop=1;jettySize=auto;html=1;endArrow=classic;endFill=1;" edge="1" parent="Ap9Q94vxLpy-YJ2IYyu8-1" source="BESiqwfDWX3r3CabY_xO-8" target="BESiqwfDWX3r3CabY_xO-10">
                    <mxGeometry relative="1" as="geometry"/>
                </mxCell>
                <mxCell id="BESiqwfDWX3r3CabY_xO-8" value="Preguntar si se quiere continuar" style="html=1;align=center;verticalAlign=middle;rounded=1;absoluteArcSize=1;arcSize=10;dashed=0;whiteSpace=wrap;" vertex="1" parent="Ap9Q94vxLpy-YJ2IYyu8-1">
                    <mxGeometry x="15" y="560" width="140" height="40" as="geometry"/>
                </mxCell>
                <mxCell id="Whavkeqa6eA9CLNkAIKm-1" style="edgeStyle=orthogonalEdgeStyle;rounded=0;orthogonalLoop=1;jettySize=auto;html=1;entryX=0;entryY=0.5;entryDx=0;entryDy=0;" edge="1" parent="Ap9Q94vxLpy-YJ2IYyu8-1" source="BESiqwfDWX3r3CabY_xO-10" target="sLwJquUKzEbeygmmXLvN-0">
                    <mxGeometry relative="1" as="geometry">
                        <Array as="points">
                            <mxPoint x="-20" y="640"/>
                            <mxPoint x="-20" y="330"/>
                        </Array>
                    </mxGeometry>
                </mxCell>
                <mxCell id="Whavkeqa6eA9CLNkAIKm-4" value="[SÃ­]" style="edgeLabel;html=1;align=center;verticalAlign=middle;resizable=0;points=[];" connectable="0" vertex="1" parent="Whavkeqa6eA9CLNkAIKm-1">
                    <mxGeometry x="-0.7184" y="1" relative="1" as="geometry">
                        <mxPoint x="13.67" y="-1" as="offset"/>
                    </mxGeometry>
                </mxCell>
                <mxCell id="BESiqwfDWX3r3CabY_xO-10" value="" style="rhombus;" vertex="1" parent="Ap9Q94vxLpy-YJ2IYyu8-1">
                    <mxGeometry x="75" y="630" width="20" height="20" as="geometry"/>
                </mxCell>
                <mxCell id="sLwJquUKzEbeygmmXLvN-1" style="edgeStyle=orthogonalEdgeStyle;rounded=0;orthogonalLoop=1;jettySize=auto;html=1;endArrow=classic;endFill=1;" edge="1" parent="Ap9Q94vxLpy-YJ2IYyu8-1" source="sLwJquUKzEbeygmmXLvN-0" target="U_dZqx0AGd9mcZNxWNDu-5">
                    <mxGeometry relative="1" as="geometry"/>
                </mxCell>
                <mxCell id="sLwJquUKzEbeygmmXLvN-0" value="" style="rhombus;" vertex="1" parent="Ap9Q94vxLpy-YJ2IYyu8-1">
                    <mxGeometry x="75" y="320" width="20" height="20" as="geometry"/>
                </mxCell>
                <mxCell id="iA1_KrxYhAVzXDu7ZQ_p-3" value="Sistema" style="swimlane;fontStyle=1;align=center;verticalAlign=middle;childLayout=stackLayout;horizontal=1;startSize=30;horizontalStack=0;resizeParent=1;resizeParentMax=0;resizeLast=0;collapsible=0;marginBottom=0;html=1;" vertex="1" parent="ruJJHhrRTI-WcSIrkkKd-1">
                    <mxGeometry x="250" y="100" width="160" height="780" as="geometry"/>
                </mxCell>
                <mxCell id="iA1_KrxYhAVzXDu7ZQ_p-4" value="" style="swimlane;fontStyle=1;align=center;verticalAlign=middle;horizontal=1;startSize=0;collapsible=0;marginBottom=0;html=1;strokeColor=none;fillColor=none;" vertex="1" parent="iA1_KrxYhAVzXDu7ZQ_p-3">
                    <mxGeometry y="30" width="160" height="750" as="geometry"/>
                </mxCell>
                <mxCell id="iA1_KrxYhAVzXDu7ZQ_p-5" value="connector1" style="edgeStyle=none;endArrow=none;verticalAlign=middle;labelBackgroundColor=none;endSize=12;html=1;align=left;endFill=0;exitX=0.15;exitY=1;entryX=0.15;entryY=0;spacingLeft=4;" edge="1" parent="iA1_KrxYhAVzXDu7ZQ_p-4">
                    <mxGeometry relative="1" as="geometry">
                        <mxPoint x="35" y="50" as="sourcePoint"/>
                    </mxGeometry>
                </mxCell>
                <mxCell id="SjubfVO8A4vDz8nE0BGq-1" style="edgeStyle=orthogonalEdgeStyle;rounded=0;orthogonalLoop=1;jettySize=auto;html=1;" edge="1" parent="iA1_KrxYhAVzXDu7ZQ_p-4" source="iA1_KrxYhAVzXDu7ZQ_p-9" target="SjubfVO8A4vDz8nE0BGq-0">
                    <mxGeometry relative="1" as="geometry"/>
                </mxCell>
                <mxCell id="iA1_KrxYhAVzXDu7ZQ_p-9" value="Validar datos" style="html=1;align=center;verticalAlign=middle;rounded=1;absoluteArcSize=1;arcSize=10;dashed=0;whiteSpace=wrap;" vertex="1" parent="iA1_KrxYhAVzXDu7ZQ_p-4">
                    <mxGeometry x="10" y="145" width="140" height="30" as="geometry"/>
                </mxCell>
                <mxCell id="U_dZqx0AGd9mcZNxWNDu-4" style="edgeStyle=orthogonalEdgeStyle;rounded=0;orthogonalLoop=1;jettySize=auto;html=1;entryX=0.5;entryY=0;entryDx=0;entryDy=0;" edge="1" parent="iA1_KrxYhAVzXDu7ZQ_p-4" source="SjubfVO8A4vDz8nE0BGq-0" target="U_dZqx0AGd9mcZNxWNDu-3">
                    <mxGeometry relative="1" as="geometry"/>
                </mxCell>
                <mxCell id="BESiqwfDWX3r3CabY_xO-1" value="[credenciales vÃ¡lidas]" style="edgeLabel;html=1;align=center;verticalAlign=middle;resizable=0;points=[];" connectable="0" vertex="1" parent="U_dZqx0AGd9mcZNxWNDu-4">
                    <mxGeometry x="-0.5879" relative="1" as="geometry">
                        <mxPoint as="offset"/>
                    </mxGeometry>
                </mxCell>
                <mxCell id="SjubfVO8A4vDz8nE0BGq-0" value="" style="rhombus;" vertex="1" parent="iA1_KrxYhAVzXDu7ZQ_p-4">
                    <mxGeometry x="70" y="200" width="20" height="20" as="geometry"/>
                </mxCell>
                <mxCell id="M7B-B2GgW6A6GWUvNCqD-1" value="Pedir nombre de usuario y contraseÃ±a" style="html=1;align=center;verticalAlign=middle;rounded=1;absoluteArcSize=1;arcSize=10;dashed=0;whiteSpace=wrap;" vertex="1" parent="iA1_KrxYhAVzXDu7ZQ_p-4">
                    <mxGeometry x="10" y="60" width="140" height="40" as="geometry"/>
                </mxCell>
                <mxCell id="Whavkeqa6eA9CLNkAIKm-9" style="edgeStyle=orthogonalEdgeStyle;rounded=0;orthogonalLoop=1;jettySize=auto;html=1;entryX=0.5;entryY=0;entryDx=0;entryDy=0;" edge="1" parent="iA1_KrxYhAVzXDu7ZQ_p-4" source="U_dZqx0AGd9mcZNxWNDu-3" target="Whavkeqa6eA9CLNkAIKm-6">
                    <mxGeometry relative="1" as="geometry"/>
                </mxCell>
                <mxCell id="U_dZqx0AGd9mcZNxWNDu-3" value="Iniciar sesiÃ³n" style="html=1;align=center;verticalAlign=middle;rounded=1;absoluteArcSize=1;arcSize=10;dashed=0;whiteSpace=wrap;spacing=7;" vertex="1" parent="iA1_KrxYhAVzXDu7ZQ_p-4">
                    <mxGeometry x="10" y="255" width="140" height="30" as="geometry"/>
                </mxCell>
                <mxCell id="DBzuubTy9__0ysfCKPUm-2" value="Eliminar filas" style="html=1;align=center;verticalAlign=middle;rounded=1;absoluteArcSize=1;arcSize=10;dashed=0;whiteSpace=wrap;" vertex="1" parent="iA1_KrxYhAVzXDu7ZQ_p-4">
                    <mxGeometry x="10" y="485" width="140" height="30" as="geometry"/>
                </mxCell>
                <mxCell id="BESiqwfDWX3r3CabY_xO-12" value="Cerrar sesiÃ³n" style="html=1;align=center;verticalAlign=middle;rounded=1;absoluteArcSize=1;arcSize=10;dashed=0;whiteSpace=wrap;" vertex="1" parent="iA1_KrxYhAVzXDu7ZQ_p-4">
                    <mxGeometry x="10" y="625" width="140" height="30" as="geometry"/>
                </mxCell>
                <mxCell id="Whavkeqa6eA9CLNkAIKm-6" value="Recopilar informaciÃ³n de tablas" style="html=1;align=center;verticalAlign=middle;rounded=1;absoluteArcSize=1;arcSize=10;dashed=0;whiteSpace=wrap;spacing=7;" vertex="1" parent="iA1_KrxYhAVzXDu7ZQ_p-4">
                    <mxGeometry x="10" y="310" width="140" height="40" as="geometry"/>
                </mxCell>
                <mxCell id="M7B-B2GgW6A6GWUvNCqD-2" style="edgeStyle=orthogonalEdgeStyle;rounded=0;orthogonalLoop=1;jettySize=auto;html=1;endArrow=classic;endFill=1;" edge="1" parent="ruJJHhrRTI-WcSIrkkKd-1" source="Ap9Q94vxLpy-YJ2IYyu8-6" target="M7B-B2GgW6A6GWUvNCqD-1">
                    <mxGeometry relative="1" as="geometry"/>
                </mxCell>
                <mxCell id="M7B-B2GgW6A6GWUvNCqD-3" style="edgeStyle=orthogonalEdgeStyle;rounded=0;orthogonalLoop=1;jettySize=auto;html=1;exitX=0.5;exitY=1;exitDx=0;exitDy=0;entryX=0.5;entryY=0;entryDx=0;entryDy=0;endArrow=classic;endFill=1;" edge="1" parent="ruJJHhrRTI-WcSIrkkKd-1" source="M7B-B2GgW6A6GWUvNCqD-1" target="M7B-B2GgW6A6GWUvNCqD-0">
                    <mxGeometry relative="1" as="geometry"/>
                </mxCell>
                <mxCell id="M7B-B2GgW6A6GWUvNCqD-4" style="edgeStyle=orthogonalEdgeStyle;rounded=0;orthogonalLoop=1;jettySize=auto;html=1;exitX=1;exitY=0.5;exitDx=0;exitDy=0;entryX=0;entryY=0.5;entryDx=0;entryDy=0;endArrow=classic;endFill=1;" edge="1" parent="ruJJHhrRTI-WcSIrkkKd-1" source="M7B-B2GgW6A6GWUvNCqD-0" target="iA1_KrxYhAVzXDu7ZQ_p-9">
                    <mxGeometry relative="1" as="geometry"/>
                </mxCell>
                <mxCell id="DBzuubTy9__0ysfCKPUm-3" style="edgeStyle=orthogonalEdgeStyle;rounded=0;orthogonalLoop=1;jettySize=auto;html=1;" edge="1" parent="ruJJHhrRTI-WcSIrkkKd-1" source="BESiqwfDWX3r3CabY_xO-2" target="DBzuubTy9__0ysfCKPUm-2">
                    <mxGeometry relative="1" as="geometry"/>
                </mxCell>
                <mxCell id="BESiqwfDWX3r3CabY_xO-4" value="[se seleccionÃ³]" style="edgeLabel;html=1;align=center;verticalAlign=middle;resizable=0;points=[];" connectable="0" vertex="1" parent="DBzuubTy9__0ysfCKPUm-3">
                    <mxGeometry x="-0.156" y="-1" relative="1" as="geometry">
                        <mxPoint y="-11" as="offset"/>
                    </mxGeometry>
                </mxCell>
                <mxCell id="Whavkeqa6eA9CLNkAIKm-0" style="edgeStyle=orthogonalEdgeStyle;rounded=0;orthogonalLoop=1;jettySize=auto;html=1;entryX=1;entryY=0.5;entryDx=0;entryDy=0;" edge="1" parent="ruJJHhrRTI-WcSIrkkKd-1" source="DBzuubTy9__0ysfCKPUm-2" target="BESiqwfDWX3r3CabY_xO-8">
                    <mxGeometry relative="1" as="geometry">
                        <Array as="points">
                            <mxPoint x="340" y="710"/>
                        </Array>
                    </mxGeometry>
                </mxCell>
                <mxCell id="Whavkeqa6eA9CLNkAIKm-8" style="edgeStyle=orthogonalEdgeStyle;rounded=0;orthogonalLoop=1;jettySize=auto;html=1;entryX=1;entryY=0.5;entryDx=0;entryDy=0;" edge="1" parent="ruJJHhrRTI-WcSIrkkKd-1" source="Whavkeqa6eA9CLNkAIKm-6" target="sLwJquUKzEbeygmmXLvN-0">
                    <mxGeometry relative="1" as="geometry"/>
                </mxCell>
                <mxCell id="BESiqwfDWX3r3CabY_xO-16" value="[no]" style="edgeStyle=orthogonalEdgeStyle;rounded=0;orthogonalLoop=1;jettySize=auto;html=1;endArrow=classic;endFill=1;" edge="1" parent="ruJJHhrRTI-WcSIrkkKd-1" source="BESiqwfDWX3r3CabY_xO-10" target="BESiqwfDWX3r3CabY_xO-12">
                    <mxGeometry relative="1" as="geometry">
                        <Array as="points">
                            <mxPoint x="200" y="770"/>
                            <mxPoint x="200" y="770"/>
                        </Array>
                    </mxGeometry>
                </mxCell>
                <mxCell id="BESiqwfDWX3r3CabY_xO-14" value="" style="ellipse;html=1;shape=endState;fillColor=#000000;strokeColor=#000000;labelBackgroundColor=none;" vertex="1" parent="ruJJHhrRTI-WcSIrkkKd-1">
                    <mxGeometry x="320" y="850" width="20" height="20" as="geometry"/>
                </mxCell>
                <mxCell id="U_dZqx0AGd9mcZNxWNDu-1" value="[credenciales no vÃ¡lidas]" style="edgeStyle=orthogonalEdgeStyle;rounded=0;orthogonalLoop=1;jettySize=auto;html=1;entryX=1;entryY=0.5;entryDx=0;entryDy=0;exitX=1;exitY=0.5;exitDx=0;exitDy=0;" edge="1" parent="ruJJHhrRTI-WcSIrkkKd-1" source="SjubfVO8A4vDz8nE0BGq-0" target="nzeBGFIFWfMmJRZJMq0H-0">
                    <mxGeometry x="-0.71" relative="1" as="geometry">
                        <mxPoint as="offset"/>
                        <mxPoint x="520" y="340" as="targetPoint"/>
                        <Array as="points">
                            <mxPoint x="460" y="340"/>
                            <mxPoint x="460" y="820"/>
                        </Array>
                    </mxGeometry>
                </mxCell>
                <mxCell id="nzeBGFIFWfMmJRZJMq0H-3" style="edgeStyle=orthogonalEdgeStyle;rounded=0;orthogonalLoop=1;jettySize=auto;html=1;endArrow=classic;endFill=1;" edge="1" parent="ruJJHhrRTI-WcSIrkkKd-1" source="nzeBGFIFWfMmJRZJMq0H-0" target="BESiqwfDWX3r3CabY_xO-14">
                    <mxGeometry relative="1" as="geometry"/>
                </mxCell>
                <mxCell id="nzeBGFIFWfMmJRZJMq0H-0" value="" style="rhombus;" vertex="1" parent="ruJJHhrRTI-WcSIrkkKd-1">
                    <mxGeometry x="320" y="810" width="20" height="20" as="geometry"/>
                </mxCell>
                <mxCell id="nzeBGFIFWfMmJRZJMq0H-2" style="edgeStyle=orthogonalEdgeStyle;rounded=0;orthogonalLoop=1;jettySize=auto;html=1;endArrow=classic;endFill=1;" edge="1" parent="ruJJHhrRTI-WcSIrkkKd-1" source="BESiqwfDWX3r3CabY_xO-12" target="nzeBGFIFWfMmJRZJMq0H-0">
                    <mxGeometry relative="1" as="geometry">
                        <mxPoint x="330" y="785" as="sourcePoint"/>
                        <mxPoint x="290" y="870" as="targetPoint"/>
                    </mxGeometry>
                </mxCell>
            </root>
        </mxGraphModel>
    </diagram>
    <diagram id="3oQI1i___oDEUQ4qhOtE" name="Actividades-3">
        <mxGraphModel grid="1" gridSize="10" guides="1" tooltips="1" connect="1" arrows="1" page="1" fold="1" pageScale="1" pageWidth="850" pageHeight="1100" math="0" shadow="0">
            <root>
                <mxCell id="NExPSIceSRSQge2FyTT1-0"/>
                <mxCell id="NExPSIceSRSQge2FyTT1-1" parent="NExPSIceSRSQge2FyTT1-0"/>
                <mxCell id="FMxR-AGxjG8bi0uJCC8n-0" value="&lt;b&gt;Diagrama de actividades 3&lt;/b&gt;&lt;br&gt;&lt;sup&gt;Ver dashboard&lt;br&gt;&lt;/sup&gt;" style="text;html=1;align=center;verticalAlign=middle;resizable=0;points=[];autosize=1;" vertex="1" parent="NExPSIceSRSQge2FyTT1-1">
                    <mxGeometry x="170" y="50" width="170" height="40" as="geometry"/>
                </mxCell>
                <mxCell id="FMxR-AGxjG8bi0uJCC8n-1" value="Usuario" style="swimlane;fontStyle=1;align=center;verticalAlign=middle;childLayout=stackLayout;horizontal=1;startSize=30;horizontalStack=0;resizeParent=1;resizeParentMax=0;resizeLast=0;collapsible=0;marginBottom=0;html=1;" vertex="1" parent="NExPSIceSRSQge2FyTT1-1">
                    <mxGeometry x="80" y="100" width="170" height="730" as="geometry"/>
                </mxCell>
                <mxCell id="FMxR-AGxjG8bi0uJCC8n-2" value="" style="swimlane;fontStyle=1;align=center;verticalAlign=middle;horizontal=1;startSize=0;collapsible=0;marginBottom=0;html=1;strokeColor=none;fillColor=none;" vertex="1" parent="FMxR-AGxjG8bi0uJCC8n-1">
                    <mxGeometry y="30" width="170" height="700" as="geometry"/>
                </mxCell>
                <mxCell id="FMxR-AGxjG8bi0uJCC8n-3" value="connector1" style="edgeStyle=none;endArrow=none;verticalAlign=middle;labelBackgroundColor=none;endSize=12;html=1;align=left;endFill=0;exitX=0.15;exitY=1;entryX=0.15;entryY=0;spacingLeft=4;" edge="1" parent="FMxR-AGxjG8bi0uJCC8n-2">
                    <mxGeometry relative="1" as="geometry">
                        <mxPoint x="35" y="50" as="sourcePoint"/>
                    </mxGeometry>
                </mxCell>
                <mxCell id="FMxR-AGxjG8bi0uJCC8n-4" style="edgeStyle=orthogonalEdgeStyle;rounded=0;orthogonalLoop=1;jettySize=auto;html=1;verticalAlign=middle;" edge="1" parent="FMxR-AGxjG8bi0uJCC8n-2" source="FMxR-AGxjG8bi0uJCC8n-5">
                    <mxGeometry relative="1" as="geometry">
                        <mxPoint x="85" y="60" as="targetPoint"/>
                    </mxGeometry>
                </mxCell>
                <mxCell id="FMxR-AGxjG8bi0uJCC8n-5" value="" style="ellipse;fillColor=#000000;strokeColor=none;verticalAlign=middle;" vertex="1" parent="FMxR-AGxjG8bi0uJCC8n-2">
                    <mxGeometry x="75" y="10" width="20" height="20" as="geometry"/>
                </mxCell>
                <mxCell id="FMxR-AGxjG8bi0uJCC8n-6" value="Ingresar al sitio del dashboard" style="html=1;align=center;verticalAlign=middle;rounded=1;absoluteArcSize=1;arcSize=10;dashed=0;whiteSpace=wrap;" vertex="1" parent="FMxR-AGxjG8bi0uJCC8n-2">
                    <mxGeometry x="15" y="60" width="140" height="40" as="geometry"/>
                </mxCell>
                <mxCell id="FMxR-AGxjG8bi0uJCC8n-7" value="Ingresar usuario y contraseÃ±a" style="html=1;align=center;verticalAlign=middle;rounded=1;absoluteArcSize=1;arcSize=10;dashed=0;whiteSpace=wrap;" vertex="1" parent="FMxR-AGxjG8bi0uJCC8n-2">
                    <mxGeometry x="15" y="140" width="140" height="40" as="geometry"/>
                </mxCell>
                <mxCell id="FMxR-AGxjG8bi0uJCC8n-8" style="edgeStyle=orthogonalEdgeStyle;rounded=0;orthogonalLoop=1;jettySize=auto;html=1;" edge="1" parent="FMxR-AGxjG8bi0uJCC8n-2" source="FMxR-AGxjG8bi0uJCC8n-9" target="FMxR-AGxjG8bi0uJCC8n-15">
                    <mxGeometry relative="1" as="geometry">
                        <mxPoint x="85" y="370" as="targetPoint"/>
                    </mxGeometry>
                </mxCell>
                <mxCell id="FMxR-AGxjG8bi0uJCC8n-9" value="Ver estadÃ­sticas" style="html=1;align=center;verticalAlign=middle;rounded=1;absoluteArcSize=1;arcSize=10;dashed=0;whiteSpace=wrap;" vertex="1" parent="FMxR-AGxjG8bi0uJCC8n-2">
                    <mxGeometry x="15" y="440" width="140" height="30" as="geometry"/>
                </mxCell>
                <mxCell id="FMxR-AGxjG8bi0uJCC8n-14" style="edgeStyle=orthogonalEdgeStyle;rounded=0;orthogonalLoop=1;jettySize=auto;html=1;endArrow=classic;endFill=1;" edge="1" parent="FMxR-AGxjG8bi0uJCC8n-2" source="FMxR-AGxjG8bi0uJCC8n-15" target="FMxR-AGxjG8bi0uJCC8n-18">
                    <mxGeometry relative="1" as="geometry"/>
                </mxCell>
                <mxCell id="FMxR-AGxjG8bi0uJCC8n-15" value="Preguntar si se quiere continuar" style="html=1;align=center;verticalAlign=middle;rounded=1;absoluteArcSize=1;arcSize=10;dashed=0;whiteSpace=wrap;" vertex="1" parent="FMxR-AGxjG8bi0uJCC8n-2">
                    <mxGeometry x="15" y="510" width="140" height="40" as="geometry"/>
                </mxCell>
                <mxCell id="FMxR-AGxjG8bi0uJCC8n-16" style="edgeStyle=orthogonalEdgeStyle;rounded=0;orthogonalLoop=1;jettySize=auto;html=1;entryX=0;entryY=0.5;entryDx=0;entryDy=0;" edge="1" parent="FMxR-AGxjG8bi0uJCC8n-2" source="FMxR-AGxjG8bi0uJCC8n-18" target="VLCbDDOXDUO-guSVNNQk-3">
                    <mxGeometry relative="1" as="geometry">
                        <Array as="points">
                            <mxPoint x="-20" y="590"/>
                            <mxPoint x="-20" y="400"/>
                        </Array>
                    </mxGeometry>
                </mxCell>
                <mxCell id="FMxR-AGxjG8bi0uJCC8n-17" value="[SÃ­]" style="edgeLabel;html=1;align=center;verticalAlign=middle;resizable=0;points=[];" connectable="0" vertex="1" parent="FMxR-AGxjG8bi0uJCC8n-16">
                    <mxGeometry x="-0.7184" y="1" relative="1" as="geometry">
                        <mxPoint x="13.67" y="-1" as="offset"/>
                    </mxGeometry>
                </mxCell>
                <mxCell id="FMxR-AGxjG8bi0uJCC8n-18" value="" style="rhombus;" vertex="1" parent="FMxR-AGxjG8bi0uJCC8n-2">
                    <mxGeometry x="75" y="580" width="20" height="20" as="geometry"/>
                </mxCell>
                <mxCell id="VLCbDDOXDUO-guSVNNQk-4" style="edgeStyle=orthogonalEdgeStyle;rounded=0;orthogonalLoop=1;jettySize=auto;html=1;exitX=0.5;exitY=1;exitDx=0;exitDy=0;endArrow=classic;endFill=1;" edge="1" parent="FMxR-AGxjG8bi0uJCC8n-2" source="VLCbDDOXDUO-guSVNNQk-3" target="FMxR-AGxjG8bi0uJCC8n-9">
                    <mxGeometry relative="1" as="geometry"/>
                </mxCell>
                <mxCell id="VLCbDDOXDUO-guSVNNQk-3" value="" style="rhombus;" vertex="1" parent="FMxR-AGxjG8bi0uJCC8n-2">
                    <mxGeometry x="75" y="390" width="20" height="20" as="geometry"/>
                </mxCell>
                <mxCell id="FMxR-AGxjG8bi0uJCC8n-19" value="Sistema" style="swimlane;fontStyle=1;align=center;verticalAlign=middle;childLayout=stackLayout;horizontal=1;startSize=30;horizontalStack=0;resizeParent=1;resizeParentMax=0;resizeLast=0;collapsible=0;marginBottom=0;html=1;" vertex="1" parent="NExPSIceSRSQge2FyTT1-1">
                    <mxGeometry x="250" y="100" width="160" height="730" as="geometry"/>
                </mxCell>
                <mxCell id="FMxR-AGxjG8bi0uJCC8n-20" value="" style="swimlane;fontStyle=1;align=center;verticalAlign=middle;horizontal=1;startSize=0;collapsible=0;marginBottom=0;html=1;strokeColor=none;fillColor=none;" vertex="1" parent="FMxR-AGxjG8bi0uJCC8n-19">
                    <mxGeometry y="30" width="160" height="700" as="geometry"/>
                </mxCell>
                <mxCell id="FMxR-AGxjG8bi0uJCC8n-21" value="connector1" style="edgeStyle=none;endArrow=none;verticalAlign=middle;labelBackgroundColor=none;endSize=12;html=1;align=left;endFill=0;exitX=0.15;exitY=1;entryX=0.15;entryY=0;spacingLeft=4;" edge="1" parent="FMxR-AGxjG8bi0uJCC8n-20">
                    <mxGeometry relative="1" as="geometry">
                        <mxPoint x="35" y="50" as="sourcePoint"/>
                    </mxGeometry>
                </mxCell>
                <mxCell id="FMxR-AGxjG8bi0uJCC8n-22" style="edgeStyle=orthogonalEdgeStyle;rounded=0;orthogonalLoop=1;jettySize=auto;html=1;" edge="1" parent="FMxR-AGxjG8bi0uJCC8n-20" source="FMxR-AGxjG8bi0uJCC8n-23" target="FMxR-AGxjG8bi0uJCC8n-26">
                    <mxGeometry relative="1" as="geometry"/>
                </mxCell>
                <mxCell id="FMxR-AGxjG8bi0uJCC8n-23" value="Validar datos" style="html=1;align=center;verticalAlign=middle;rounded=1;absoluteArcSize=1;arcSize=10;dashed=0;whiteSpace=wrap;" vertex="1" parent="FMxR-AGxjG8bi0uJCC8n-20">
                    <mxGeometry x="10" y="145" width="140" height="30" as="geometry"/>
                </mxCell>
                <mxCell id="FMxR-AGxjG8bi0uJCC8n-24" style="edgeStyle=orthogonalEdgeStyle;rounded=0;orthogonalLoop=1;jettySize=auto;html=1;entryX=0.5;entryY=0;entryDx=0;entryDy=0;" edge="1" parent="FMxR-AGxjG8bi0uJCC8n-20" source="FMxR-AGxjG8bi0uJCC8n-26" target="FMxR-AGxjG8bi0uJCC8n-29">
                    <mxGeometry relative="1" as="geometry"/>
                </mxCell>
                <mxCell id="FMxR-AGxjG8bi0uJCC8n-25" value="[credenciales vÃ¡lidas]" style="edgeLabel;html=1;align=center;verticalAlign=middle;resizable=0;points=[];" connectable="0" vertex="1" parent="FMxR-AGxjG8bi0uJCC8n-24">
                    <mxGeometry x="-0.5879" relative="1" as="geometry">
                        <mxPoint as="offset"/>
                    </mxGeometry>
                </mxCell>
                <mxCell id="FMxR-AGxjG8bi0uJCC8n-26" value="" style="rhombus;" vertex="1" parent="FMxR-AGxjG8bi0uJCC8n-20">
                    <mxGeometry x="70" y="200" width="20" height="20" as="geometry"/>
                </mxCell>
                <mxCell id="FMxR-AGxjG8bi0uJCC8n-27" value="Pedir nombre de usuario y contraseÃ±a" style="html=1;align=center;verticalAlign=middle;rounded=1;absoluteArcSize=1;arcSize=10;dashed=0;whiteSpace=wrap;" vertex="1" parent="FMxR-AGxjG8bi0uJCC8n-20">
                    <mxGeometry x="10" y="60" width="140" height="40" as="geometry"/>
                </mxCell>
                <mxCell id="FMxR-AGxjG8bi0uJCC8n-28" style="edgeStyle=orthogonalEdgeStyle;rounded=0;orthogonalLoop=1;jettySize=auto;html=1;entryX=0.5;entryY=0;entryDx=0;entryDy=0;" edge="1" parent="FMxR-AGxjG8bi0uJCC8n-20" source="FMxR-AGxjG8bi0uJCC8n-29" target="FMxR-AGxjG8bi0uJCC8n-34">
                    <mxGeometry relative="1" as="geometry"/>
                </mxCell>
                <mxCell id="FMxR-AGxjG8bi0uJCC8n-29" value="Iniciar sesiÃ³n" style="html=1;align=center;verticalAlign=middle;rounded=1;absoluteArcSize=1;arcSize=10;dashed=0;whiteSpace=wrap;spacing=7;" vertex="1" parent="FMxR-AGxjG8bi0uJCC8n-20">
                    <mxGeometry x="10" y="255" width="140" height="30" as="geometry"/>
                </mxCell>
                <mxCell id="FMxR-AGxjG8bi0uJCC8n-31" value="Cerrar sesiÃ³n" style="html=1;align=center;verticalAlign=middle;rounded=1;absoluteArcSize=1;arcSize=10;dashed=0;whiteSpace=wrap;" vertex="1" parent="FMxR-AGxjG8bi0uJCC8n-20">
                    <mxGeometry x="10" y="575" width="140" height="30" as="geometry"/>
                </mxCell>
                <mxCell id="FMxR-AGxjG8bi0uJCC8n-33" style="edgeStyle=orthogonalEdgeStyle;rounded=0;orthogonalLoop=1;jettySize=auto;html=1;endArrow=classic;endFill=1;" edge="1" parent="FMxR-AGxjG8bi0uJCC8n-20" source="FMxR-AGxjG8bi0uJCC8n-31">
                    <mxGeometry relative="1" as="geometry">
                        <mxPoint x="80" y="630" as="targetPoint"/>
                    </mxGeometry>
                </mxCell>
                <mxCell id="VLCbDDOXDUO-guSVNNQk-1" style="edgeStyle=orthogonalEdgeStyle;rounded=0;orthogonalLoop=1;jettySize=auto;html=1;endArrow=classic;endFill=1;" edge="1" parent="FMxR-AGxjG8bi0uJCC8n-20" source="FMxR-AGxjG8bi0uJCC8n-34" target="VLCbDDOXDUO-guSVNNQk-0">
                    <mxGeometry relative="1" as="geometry"/>
                </mxCell>
                <mxCell id="FMxR-AGxjG8bi0uJCC8n-34" value="Recopilar informaciÃ³n de tablas" style="html=1;align=center;verticalAlign=middle;rounded=1;absoluteArcSize=1;arcSize=10;dashed=0;whiteSpace=wrap;spacing=7;" vertex="1" parent="FMxR-AGxjG8bi0uJCC8n-20">
                    <mxGeometry x="10" y="325" width="140" height="40" as="geometry"/>
                </mxCell>
                <mxCell id="VLCbDDOXDUO-guSVNNQk-0" value="Generar y enseÃ±ar informaciÃ³n estadÃ­stica" style="html=1;align=center;verticalAlign=middle;rounded=1;absoluteArcSize=1;arcSize=10;dashed=0;whiteSpace=wrap;spacing=7;" vertex="1" parent="FMxR-AGxjG8bi0uJCC8n-20">
                    <mxGeometry x="10" y="380" width="140" height="40" as="geometry"/>
                </mxCell>
                <mxCell id="61J9NjNZVbvzDH8iC1Im-3" style="edgeStyle=orthogonalEdgeStyle;rounded=0;orthogonalLoop=1;jettySize=auto;html=1;exitX=0.5;exitY=1;exitDx=0;exitDy=0;endArrow=classic;endFill=1;" edge="1" parent="FMxR-AGxjG8bi0uJCC8n-20" source="61J9NjNZVbvzDH8iC1Im-0" target="FMxR-AGxjG8bi0uJCC8n-32">
                    <mxGeometry relative="1" as="geometry"/>
                </mxCell>
                <mxCell id="61J9NjNZVbvzDH8iC1Im-0" value="" style="rhombus;" vertex="1" parent="FMxR-AGxjG8bi0uJCC8n-20">
                    <mxGeometry x="70" y="630" width="20" height="20" as="geometry"/>
                </mxCell>
                <mxCell id="FMxR-AGxjG8bi0uJCC8n-35" value="[credenciales no vÃ¡lidas]" style="edgeStyle=orthogonalEdgeStyle;rounded=0;orthogonalLoop=1;jettySize=auto;html=1;entryX=1;entryY=0.5;entryDx=0;entryDy=0;exitX=1;exitY=0.5;exitDx=0;exitDy=0;" edge="1" parent="FMxR-AGxjG8bi0uJCC8n-20" source="FMxR-AGxjG8bi0uJCC8n-26" target="61J9NjNZVbvzDH8iC1Im-0">
                    <mxGeometry x="-0.7681" relative="1" as="geometry">
                        <mxPoint as="offset"/>
                        <mxPoint x="190" y="660" as="targetPoint"/>
                        <Array as="points">
                            <mxPoint x="220" y="210"/>
                            <mxPoint x="220" y="640"/>
                        </Array>
                    </mxGeometry>
                </mxCell>
                <mxCell id="FMxR-AGxjG8bi0uJCC8n-32" value="" style="ellipse;html=1;shape=endState;fillColor=#000000;strokeColor=#000000;labelBackgroundColor=none;" vertex="1" parent="FMxR-AGxjG8bi0uJCC8n-20">
                    <mxGeometry x="70" y="670" width="20" height="20" as="geometry"/>
                </mxCell>
                <mxCell id="FMxR-AGxjG8bi0uJCC8n-36" style="edgeStyle=orthogonalEdgeStyle;rounded=0;orthogonalLoop=1;jettySize=auto;html=1;endArrow=classic;endFill=1;" edge="1" parent="NExPSIceSRSQge2FyTT1-1" source="FMxR-AGxjG8bi0uJCC8n-6" target="FMxR-AGxjG8bi0uJCC8n-27">
                    <mxGeometry relative="1" as="geometry"/>
                </mxCell>
                <mxCell id="FMxR-AGxjG8bi0uJCC8n-37" style="edgeStyle=orthogonalEdgeStyle;rounded=0;orthogonalLoop=1;jettySize=auto;html=1;exitX=0.5;exitY=1;exitDx=0;exitDy=0;entryX=0.5;entryY=0;entryDx=0;entryDy=0;endArrow=classic;endFill=1;" edge="1" parent="NExPSIceSRSQge2FyTT1-1" source="FMxR-AGxjG8bi0uJCC8n-27" target="FMxR-AGxjG8bi0uJCC8n-7">
                    <mxGeometry relative="1" as="geometry"/>
                </mxCell>
                <mxCell id="FMxR-AGxjG8bi0uJCC8n-38" style="edgeStyle=orthogonalEdgeStyle;rounded=0;orthogonalLoop=1;jettySize=auto;html=1;exitX=1;exitY=0.5;exitDx=0;exitDy=0;entryX=0;entryY=0.5;entryDx=0;entryDy=0;endArrow=classic;endFill=1;" edge="1" parent="NExPSIceSRSQge2FyTT1-1" source="FMxR-AGxjG8bi0uJCC8n-7" target="FMxR-AGxjG8bi0uJCC8n-23">
                    <mxGeometry relative="1" as="geometry"/>
                </mxCell>
                <mxCell id="FMxR-AGxjG8bi0uJCC8n-43" value="[no]" style="edgeStyle=orthogonalEdgeStyle;rounded=0;orthogonalLoop=1;jettySize=auto;html=1;endArrow=classic;endFill=1;" edge="1" parent="NExPSIceSRSQge2FyTT1-1" source="FMxR-AGxjG8bi0uJCC8n-18" target="FMxR-AGxjG8bi0uJCC8n-31">
                    <mxGeometry relative="1" as="geometry">
                        <Array as="points">
                            <mxPoint x="220" y="720"/>
                            <mxPoint x="220" y="720"/>
                        </Array>
                    </mxGeometry>
                </mxCell>
                <mxCell id="VLCbDDOXDUO-guSVNNQk-2" style="edgeStyle=orthogonalEdgeStyle;rounded=0;orthogonalLoop=1;jettySize=auto;html=1;exitX=0;exitY=0.5;exitDx=0;exitDy=0;endArrow=classic;endFill=1;entryX=1;entryY=0.5;entryDx=0;entryDy=0;" edge="1" parent="NExPSIceSRSQge2FyTT1-1" source="VLCbDDOXDUO-guSVNNQk-0" target="VLCbDDOXDUO-guSVNNQk-3">
                    <mxGeometry relative="1" as="geometry"/>
                </mxCell>
            </root>
        </mxGraphModel>
    </diagram>
    <diagram name="Actividades-4" id="wbf9AhJFe3wm9hvcljRN">
        <mxGraphModel grid="1" gridSize="10" guides="1" tooltips="1" connect="1" arrows="1" page="1" fold="1" pageScale="1" pageWidth="850" pageHeight="1100" math="0" shadow="0">
            <root>
                <mxCell id="hpUtTjqAbKqpn5GByKf5-0"/>
                <mxCell id="hpUtTjqAbKqpn5GByKf5-1" parent="hpUtTjqAbKqpn5GByKf5-0"/>
                <mxCell id="hpUtTjqAbKqpn5GByKf5-2" value="&lt;b&gt;Diagrama de actividades 4&lt;/b&gt;&lt;br&gt;&lt;sup&gt;Monitorear estado del juego&lt;br&gt;&lt;/sup&gt;" style="text;html=1;align=center;verticalAlign=middle;resizable=0;points=[];autosize=1;" parent="hpUtTjqAbKqpn5GByKf5-1" vertex="1">
                    <mxGeometry x="170" y="50" width="170" height="40" as="geometry"/>
                </mxCell>
                <mxCell id="hpUtTjqAbKqpn5GByKf5-3" value="Usuario" style="swimlane;fontStyle=1;align=center;verticalAlign=middle;childLayout=stackLayout;horizontal=1;startSize=30;horizontalStack=0;resizeParent=1;resizeParentMax=0;resizeLast=0;collapsible=0;marginBottom=0;html=1;" parent="hpUtTjqAbKqpn5GByKf5-1" vertex="1">
                    <mxGeometry x="80" y="100" width="170" height="730" as="geometry"/>
                </mxCell>
                <mxCell id="hpUtTjqAbKqpn5GByKf5-4" value="" style="swimlane;fontStyle=1;align=center;verticalAlign=middle;horizontal=1;startSize=0;collapsible=0;marginBottom=0;html=1;strokeColor=none;fillColor=none;" parent="hpUtTjqAbKqpn5GByKf5-3" vertex="1">
                    <mxGeometry y="30" width="170" height="700" as="geometry"/>
                </mxCell>
                <mxCell id="hpUtTjqAbKqpn5GByKf5-5" value="connector1" style="edgeStyle=none;endArrow=none;verticalAlign=middle;labelBackgroundColor=none;endSize=12;html=1;align=left;endFill=0;exitX=0.15;exitY=1;entryX=0.15;entryY=0;spacingLeft=4;" parent="hpUtTjqAbKqpn5GByKf5-4" edge="1">
                    <mxGeometry relative="1" as="geometry">
                        <mxPoint x="35" y="50" as="sourcePoint"/>
                    </mxGeometry>
                </mxCell>
                <mxCell id="hpUtTjqAbKqpn5GByKf5-6" style="edgeStyle=orthogonalEdgeStyle;rounded=0;orthogonalLoop=1;jettySize=auto;html=1;verticalAlign=middle;" parent="hpUtTjqAbKqpn5GByKf5-4" source="hpUtTjqAbKqpn5GByKf5-7" edge="1">
                    <mxGeometry relative="1" as="geometry">
                        <mxPoint x="85" y="60" as="targetPoint"/>
                    </mxGeometry>
                </mxCell>
                <mxCell id="hpUtTjqAbKqpn5GByKf5-7" value="" style="ellipse;fillColor=#000000;strokeColor=none;verticalAlign=middle;" parent="hpUtTjqAbKqpn5GByKf5-4" vertex="1">
                    <mxGeometry x="75" y="10" width="20" height="20" as="geometry"/>
                </mxCell>
                <mxCell id="hpUtTjqAbKqpn5GByKf5-8" value="Ingresar al sitio del dashboard" style="html=1;align=center;verticalAlign=middle;rounded=1;absoluteArcSize=1;arcSize=10;dashed=0;whiteSpace=wrap;" parent="hpUtTjqAbKqpn5GByKf5-4" vertex="1">
                    <mxGeometry x="15" y="60" width="140" height="40" as="geometry"/>
                </mxCell>
                <mxCell id="hpUtTjqAbKqpn5GByKf5-9" value="Ingresar usuario y contraseÃ±a" style="html=1;align=center;verticalAlign=middle;rounded=1;absoluteArcSize=1;arcSize=10;dashed=0;whiteSpace=wrap;" parent="hpUtTjqAbKqpn5GByKf5-4" vertex="1">
                    <mxGeometry x="15" y="140" width="140" height="40" as="geometry"/>
                </mxCell>
                <mxCell id="hpUtTjqAbKqpn5GByKf5-10" style="edgeStyle=orthogonalEdgeStyle;rounded=0;orthogonalLoop=1;jettySize=auto;html=1;" parent="hpUtTjqAbKqpn5GByKf5-4" source="hpUtTjqAbKqpn5GByKf5-11" target="hpUtTjqAbKqpn5GByKf5-13" edge="1">
                    <mxGeometry relative="1" as="geometry">
                        <mxPoint x="85" y="370" as="targetPoint"/>
                    </mxGeometry>
                </mxCell>
                <mxCell id="hpUtTjqAbKqpn5GByKf5-11" value="Ver estadÃ­sticas" style="html=1;align=center;verticalAlign=middle;rounded=1;absoluteArcSize=1;arcSize=10;dashed=0;whiteSpace=wrap;" parent="hpUtTjqAbKqpn5GByKf5-4" vertex="1">
                    <mxGeometry x="15" y="440" width="140" height="30" as="geometry"/>
                </mxCell>
                <mxCell id="hpUtTjqAbKqpn5GByKf5-12" style="edgeStyle=orthogonalEdgeStyle;rounded=0;orthogonalLoop=1;jettySize=auto;html=1;endArrow=classic;endFill=1;" parent="hpUtTjqAbKqpn5GByKf5-4" source="hpUtTjqAbKqpn5GByKf5-13" target="hpUtTjqAbKqpn5GByKf5-16" edge="1">
                    <mxGeometry relative="1" as="geometry"/>
                </mxCell>
                <mxCell id="hpUtTjqAbKqpn5GByKf5-13" value="Preguntar si se quiere continuar" style="html=1;align=center;verticalAlign=middle;rounded=1;absoluteArcSize=1;arcSize=10;dashed=0;whiteSpace=wrap;" parent="hpUtTjqAbKqpn5GByKf5-4" vertex="1">
                    <mxGeometry x="15" y="510" width="140" height="40" as="geometry"/>
                </mxCell>
                <mxCell id="hpUtTjqAbKqpn5GByKf5-14" style="edgeStyle=orthogonalEdgeStyle;rounded=0;orthogonalLoop=1;jettySize=auto;html=1;entryX=0;entryY=0.5;entryDx=0;entryDy=0;" parent="hpUtTjqAbKqpn5GByKf5-4" source="hpUtTjqAbKqpn5GByKf5-16" target="hpUtTjqAbKqpn5GByKf5-18" edge="1">
                    <mxGeometry relative="1" as="geometry">
                        <Array as="points">
                            <mxPoint x="-20" y="590"/>
                            <mxPoint x="-20" y="400"/>
                        </Array>
                    </mxGeometry>
                </mxCell>
                <mxCell id="hpUtTjqAbKqpn5GByKf5-15" value="[SÃ­]" style="edgeLabel;html=1;align=center;verticalAlign=middle;resizable=0;points=[];" parent="hpUtTjqAbKqpn5GByKf5-14" connectable="0" vertex="1">
                    <mxGeometry x="-0.7184" y="1" relative="1" as="geometry">
                        <mxPoint x="13.67" y="-1" as="offset"/>
                    </mxGeometry>
                </mxCell>
                <mxCell id="hpUtTjqAbKqpn5GByKf5-16" value="" style="rhombus;" parent="hpUtTjqAbKqpn5GByKf5-4" vertex="1">
                    <mxGeometry x="75" y="580" width="20" height="20" as="geometry"/>
                </mxCell>
                <mxCell id="hpUtTjqAbKqpn5GByKf5-17" style="edgeStyle=orthogonalEdgeStyle;rounded=0;orthogonalLoop=1;jettySize=auto;html=1;exitX=0.5;exitY=1;exitDx=0;exitDy=0;endArrow=classic;endFill=1;" parent="hpUtTjqAbKqpn5GByKf5-4" source="hpUtTjqAbKqpn5GByKf5-18" target="hpUtTjqAbKqpn5GByKf5-11" edge="1">
                    <mxGeometry relative="1" as="geometry"/>
                </mxCell>
                <mxCell id="hpUtTjqAbKqpn5GByKf5-18" value="" style="rhombus;" parent="hpUtTjqAbKqpn5GByKf5-4" vertex="1">
                    <mxGeometry x="75" y="390" width="20" height="20" as="geometry"/>
                </mxCell>
                <mxCell id="hpUtTjqAbKqpn5GByKf5-19" value="Sistema" style="swimlane;fontStyle=1;align=center;verticalAlign=middle;childLayout=stackLayout;horizontal=1;startSize=30;horizontalStack=0;resizeParent=1;resizeParentMax=0;resizeLast=0;collapsible=0;marginBottom=0;html=1;" parent="hpUtTjqAbKqpn5GByKf5-1" vertex="1">
                    <mxGeometry x="250" y="100" width="160" height="730" as="geometry"/>
                </mxCell>
                <mxCell id="hpUtTjqAbKqpn5GByKf5-20" value="" style="swimlane;fontStyle=1;align=center;verticalAlign=middle;horizontal=1;startSize=0;collapsible=0;marginBottom=0;html=1;strokeColor=none;fillColor=none;" parent="hpUtTjqAbKqpn5GByKf5-19" vertex="1">
                    <mxGeometry y="30" width="160" height="700" as="geometry"/>
                </mxCell>
                <mxCell id="hpUtTjqAbKqpn5GByKf5-21" value="connector1" style="edgeStyle=none;endArrow=none;verticalAlign=middle;labelBackgroundColor=none;endSize=12;html=1;align=left;endFill=0;exitX=0.15;exitY=1;entryX=0.15;entryY=0;spacingLeft=4;" parent="hpUtTjqAbKqpn5GByKf5-20" edge="1">
                    <mxGeometry relative="1" as="geometry">
                        <mxPoint x="35" y="50" as="sourcePoint"/>
                    </mxGeometry>
                </mxCell>
                <mxCell id="hpUtTjqAbKqpn5GByKf5-22" style="edgeStyle=orthogonalEdgeStyle;rounded=0;orthogonalLoop=1;jettySize=auto;html=1;" parent="hpUtTjqAbKqpn5GByKf5-20" source="hpUtTjqAbKqpn5GByKf5-23" target="hpUtTjqAbKqpn5GByKf5-26" edge="1">
                    <mxGeometry relative="1" as="geometry"/>
                </mxCell>
                <mxCell id="hpUtTjqAbKqpn5GByKf5-23" value="Validar datos" style="html=1;align=center;verticalAlign=middle;rounded=1;absoluteArcSize=1;arcSize=10;dashed=0;whiteSpace=wrap;" parent="hpUtTjqAbKqpn5GByKf5-20" vertex="1">
                    <mxGeometry x="10" y="145" width="140" height="30" as="geometry"/>
                </mxCell>
                <mxCell id="hpUtTjqAbKqpn5GByKf5-24" style="edgeStyle=orthogonalEdgeStyle;rounded=0;orthogonalLoop=1;jettySize=auto;html=1;entryX=0.5;entryY=0;entryDx=0;entryDy=0;" parent="hpUtTjqAbKqpn5GByKf5-20" source="hpUtTjqAbKqpn5GByKf5-26" target="hpUtTjqAbKqpn5GByKf5-29" edge="1">
                    <mxGeometry relative="1" as="geometry"/>
                </mxCell>
                <mxCell id="hpUtTjqAbKqpn5GByKf5-25" value="[credenciales vÃ¡lidas]" style="edgeLabel;html=1;align=center;verticalAlign=middle;resizable=0;points=[];" parent="hpUtTjqAbKqpn5GByKf5-24" connectable="0" vertex="1">
                    <mxGeometry x="-0.5879" relative="1" as="geometry">
                        <mxPoint as="offset"/>
                    </mxGeometry>
                </mxCell>
                <mxCell id="hpUtTjqAbKqpn5GByKf5-26" value="" style="rhombus;" parent="hpUtTjqAbKqpn5GByKf5-20" vertex="1">
                    <mxGeometry x="70" y="200" width="20" height="20" as="geometry"/>
                </mxCell>
                <mxCell id="hpUtTjqAbKqpn5GByKf5-27" value="Pedir nombre de usuario y contraseÃ±a" style="html=1;align=center;verticalAlign=middle;rounded=1;absoluteArcSize=1;arcSize=10;dashed=0;whiteSpace=wrap;" parent="hpUtTjqAbKqpn5GByKf5-20" vertex="1">
                    <mxGeometry x="10" y="60" width="140" height="40" as="geometry"/>
                </mxCell>
                <mxCell id="hpUtTjqAbKqpn5GByKf5-28" style="edgeStyle=orthogonalEdgeStyle;rounded=0;orthogonalLoop=1;jettySize=auto;html=1;entryX=0.5;entryY=0;entryDx=0;entryDy=0;" parent="hpUtTjqAbKqpn5GByKf5-20" source="hpUtTjqAbKqpn5GByKf5-29" target="hpUtTjqAbKqpn5GByKf5-33" edge="1">
                    <mxGeometry relative="1" as="geometry"/>
                </mxCell>
                <mxCell id="hpUtTjqAbKqpn5GByKf5-29" value="Iniciar sesiÃ³n" style="html=1;align=center;verticalAlign=middle;rounded=1;absoluteArcSize=1;arcSize=10;dashed=0;whiteSpace=wrap;spacing=7;" parent="hpUtTjqAbKqpn5GByKf5-20" vertex="1">
                    <mxGeometry x="10" y="255" width="140" height="30" as="geometry"/>
                </mxCell>
                <mxCell id="hpUtTjqAbKqpn5GByKf5-30" value="Cerrar sesiÃ³n" style="html=1;align=center;verticalAlign=middle;rounded=1;absoluteArcSize=1;arcSize=10;dashed=0;whiteSpace=wrap;" parent="hpUtTjqAbKqpn5GByKf5-20" vertex="1">
                    <mxGeometry x="10" y="575" width="140" height="30" as="geometry"/>
                </mxCell>
                <mxCell id="hpUtTjqAbKqpn5GByKf5-31" style="edgeStyle=orthogonalEdgeStyle;rounded=0;orthogonalLoop=1;jettySize=auto;html=1;endArrow=classic;endFill=1;" parent="hpUtTjqAbKqpn5GByKf5-20" source="hpUtTjqAbKqpn5GByKf5-30" edge="1">
                    <mxGeometry relative="1" as="geometry">
                        <mxPoint x="80" y="630" as="targetPoint"/>
                    </mxGeometry>
                </mxCell>
                <mxCell id="hpUtTjqAbKqpn5GByKf5-32" style="edgeStyle=orthogonalEdgeStyle;rounded=0;orthogonalLoop=1;jettySize=auto;html=1;endArrow=classic;endFill=1;" parent="hpUtTjqAbKqpn5GByKf5-20" source="hpUtTjqAbKqpn5GByKf5-33" target="hpUtTjqAbKqpn5GByKf5-34" edge="1">
                    <mxGeometry relative="1" as="geometry"/>
                </mxCell>
                <mxCell id="hpUtTjqAbKqpn5GByKf5-33" value="Recopilar informaciÃ³n estadÃ­stica de jugadores" style="html=1;align=center;verticalAlign=middle;rounded=1;absoluteArcSize=1;arcSize=10;dashed=0;whiteSpace=wrap;spacing=7;" parent="hpUtTjqAbKqpn5GByKf5-20" vertex="1">
                    <mxGeometry x="10" y="310" width="140" height="55" as="geometry"/>
                </mxCell>
                <mxCell id="hpUtTjqAbKqpn5GByKf5-34" value="Generar y enseÃ±ar informaciÃ³n estadÃ­stica" style="html=1;align=center;verticalAlign=middle;rounded=1;absoluteArcSize=1;arcSize=10;dashed=0;whiteSpace=wrap;spacing=7;" parent="hpUtTjqAbKqpn5GByKf5-20" vertex="1">
                    <mxGeometry x="10" y="380" width="140" height="40" as="geometry"/>
                </mxCell>
                <mxCell id="hpUtTjqAbKqpn5GByKf5-35" style="edgeStyle=orthogonalEdgeStyle;rounded=0;orthogonalLoop=1;jettySize=auto;html=1;exitX=0.5;exitY=1;exitDx=0;exitDy=0;endArrow=classic;endFill=1;" parent="hpUtTjqAbKqpn5GByKf5-20" source="hpUtTjqAbKqpn5GByKf5-36" target="hpUtTjqAbKqpn5GByKf5-38" edge="1">
                    <mxGeometry relative="1" as="geometry"/>
                </mxCell>
                <mxCell id="hpUtTjqAbKqpn5GByKf5-36" value="" style="rhombus;" parent="hpUtTjqAbKqpn5GByKf5-20" vertex="1">
                    <mxGeometry x="70" y="630" width="20" height="20" as="geometry"/>
                </mxCell>
                <mxCell id="hpUtTjqAbKqpn5GByKf5-37" value="[credenciales no vÃ¡lidas]" style="edgeStyle=orthogonalEdgeStyle;rounded=0;orthogonalLoop=1;jettySize=auto;html=1;entryX=1;entryY=0.5;entryDx=0;entryDy=0;" parent="hpUtTjqAbKqpn5GByKf5-20" source="hpUtTjqAbKqpn5GByKf5-26" target="hpUtTjqAbKqpn5GByKf5-36" edge="1">
                    <mxGeometry x="-0.7681" relative="1" as="geometry">
                        <mxPoint as="offset"/>
                        <mxPoint x="190" y="660" as="targetPoint"/>
                        <Array as="points">
                            <mxPoint x="210" y="210"/>
                            <mxPoint x="210" y="640"/>
                        </Array>
                    </mxGeometry>
                </mxCell>
                <mxCell id="hpUtTjqAbKqpn5GByKf5-38" value="" style="ellipse;html=1;shape=endState;fillColor=#000000;strokeColor=#000000;labelBackgroundColor=none;" parent="hpUtTjqAbKqpn5GByKf5-20" vertex="1">
                    <mxGeometry x="70" y="670" width="20" height="20" as="geometry"/>
                </mxCell>
                <mxCell id="hpUtTjqAbKqpn5GByKf5-39" style="edgeStyle=orthogonalEdgeStyle;rounded=0;orthogonalLoop=1;jettySize=auto;html=1;endArrow=classic;endFill=1;" parent="hpUtTjqAbKqpn5GByKf5-1" source="hpUtTjqAbKqpn5GByKf5-8" target="hpUtTjqAbKqpn5GByKf5-27" edge="1">
                    <mxGeometry relative="1" as="geometry"/>
                </mxCell>
                <mxCell id="hpUtTjqAbKqpn5GByKf5-40" style="edgeStyle=orthogonalEdgeStyle;rounded=0;orthogonalLoop=1;jettySize=auto;html=1;exitX=0.5;exitY=1;exitDx=0;exitDy=0;entryX=0.5;entryY=0;entryDx=0;entryDy=0;endArrow=classic;endFill=1;" parent="hpUtTjqAbKqpn5GByKf5-1" source="hpUtTjqAbKqpn5GByKf5-27" target="hpUtTjqAbKqpn5GByKf5-9" edge="1">
                    <mxGeometry relative="1" as="geometry"/>
                </mxCell>
                <mxCell id="hpUtTjqAbKqpn5GByKf5-41" style="edgeStyle=orthogonalEdgeStyle;rounded=0;orthogonalLoop=1;jettySize=auto;html=1;exitX=1;exitY=0.5;exitDx=0;exitDy=0;entryX=0;entryY=0.5;entryDx=0;entryDy=0;endArrow=classic;endFill=1;" parent="hpUtTjqAbKqpn5GByKf5-1" source="hpUtTjqAbKqpn5GByKf5-9" target="hpUtTjqAbKqpn5GByKf5-23" edge="1">
                    <mxGeometry relative="1" as="geometry"/>
                </mxCell>
                <mxCell id="hpUtTjqAbKqpn5GByKf5-42" value="[no]" style="edgeStyle=orthogonalEdgeStyle;rounded=0;orthogonalLoop=1;jettySize=auto;html=1;endArrow=classic;endFill=1;" parent="hpUtTjqAbKqpn5GByKf5-1" source="hpUtTjqAbKqpn5GByKf5-16" target="hpUtTjqAbKqpn5GByKf5-30" edge="1">
                    <mxGeometry relative="1" as="geometry">
                        <Array as="points">
                            <mxPoint x="220" y="720"/>
                            <mxPoint x="220" y="720"/>
                        </Array>
                    </mxGeometry>
                </mxCell>
                <mxCell id="hpUtTjqAbKqpn5GByKf5-43" style="edgeStyle=orthogonalEdgeStyle;rounded=0;orthogonalLoop=1;jettySize=auto;html=1;exitX=0;exitY=0.5;exitDx=0;exitDy=0;endArrow=classic;endFill=1;entryX=1;entryY=0.5;entryDx=0;entryDy=0;" parent="hpUtTjqAbKqpn5GByKf5-1" source="hpUtTjqAbKqpn5GByKf5-34" target="hpUtTjqAbKqpn5GByKf5-18" edge="1">
                    <mxGeometry relative="1" as="geometry"/>
                </mxCell>
            </root>
        </mxGraphModel>
    </diagram>
</mxfile>